<svg version="1.1" xmlns="http://www.w3.org/2000/svg" style="display: block;" viewBox="0 0 2048 2048" width="1024" height="1024">
<path transform="translate(0,0)" fill="rgb(254,254,254)" d="M 0 0 L 2048 0 L 2048 2048 L 0 2048 L 0 0 z"/>
<path transform="translate(0,0)" fill="rgb(60,59,60)" d="M 978.989 239.059 C 979.661 196.008 991.22 151.795 1013.43 114.802 C 1017.8 107.529 1022.39 99.8726 1028.48 93.8953 C 1047.95 74.8063 1106.05 66.5074 1132.72 67.3163 C 1181.24 68.7882 1229.58 87.2613 1263.16 123.145 C 1300.74 163.296 1314.76 213.737 1312.62 268.073 C 1312.45 272.581 1312.2 277.085 1311.86 281.584 C 1310.39 283.388 1309.03 285.335 1308.1 287.483 C 1303.65 297.746 1281.79 366.693 1281.23 374.775 C 1279.57 398.757 1283.78 423.683 1284.63 447.735 C 1261.5 442.693 1235.86 443.433 1212.42 445.775 C 1206.87 440.513 1201.41 435.057 1195.06 430.76 C 1188.64 426.424 1181.54 423.205 1175.2 418.769 C 1166.48 412.675 1158.32 405.424 1149.21 399.967 C 1148.97 408.739 1149.6 417.281 1150.34 426.005 C 1150.66 426.308 1150.98 426.614 1151.3 426.913 C 1157.61 432.737 1164.82 437.505 1171.76 442.525 C 1180.03 448.505 1187.84 455.057 1196.09 461.043 C 1220.06 478.448 1229.84 486.488 1241.39 515.043 C 1250.63 537.873 1254.25 561.822 1255.38 586.294 C 1256.7 614.756 1248.26 618.458 1231.57 638.651 C 1232.97 664.247 1226.4 714.207 1208.71 734.022 C 1207.05 735.876 1205.04 737.364 1203.02 738.795 C 1202.7 758.185 1202.69 777.578 1202.99 796.968 C 1216.44 806.893 1230.19 816.674 1242.35 828.178 C 1284.76 868.287 1314.97 923.437 1338.67 976.242 C 1343.7 987.455 1345.61 1000.78 1350.65 1011.13 C 1365.09 1040.83 1387.56 1070.76 1392.71 1104.18 C 1393.27 1107.84 1393.11 1111.69 1392.91 1115.39 C 1385.34 1126.9 1349.67 1151.91 1336.85 1157.93 C 1318.29 1152.19 1294.04 1143.99 1284.68 1125.37 C 1281.17 1118.4 1286.47 1115.67 1285.28 1111.88 C 1284.26 1108.64 1276.46 1103.44 1274.09 1100.22 C 1274.83 1094.23 1274.88 1087.11 1279.3 1082.56 C 1281.12 1082.34 1282.63 1082.38 1284.45 1082.6 C 1281.32 1077.52 1270.29 1073.21 1265.55 1068.7 C 1256.2 1059.81 1251.52 1045.64 1242.29 1035.83 C 1220.09 1012.22 1192.88 993.333 1168.79 971.635 C 1151.31 955.887 1128.6 929.045 1110.15 917.172 C 1130.5 961.793 1128.3 1017.76 1125.68 1065.85 C 1139 1082.3 1152.45 1098.92 1164.45 1116.38 C 1199.71 1167.66 1236.36 1238.79 1251.23 1299.5 C 1263.08 1297.24 1279.34 1299.41 1289.57 1306.29 C 1292.14 1308.01 1294.08 1310.16 1295.4 1312.96 C 1302.84 1328.75 1308.7 1366.55 1311.81 1385.1 C 1316.1 1411.26 1318.24 1437.73 1318.23 1464.24 C 1318.15 1476.01 1317.14 1487.74 1316.97 1499.51 C 1316.67 1521.04 1317.2 1542.59 1317.05 1564.13 C 1316.95 1579.53 1316.17 1595.26 1317.09 1610.64 C 1317.77 1622.15 1320.42 1633.73 1322.44 1645.07 C 1327.28 1672.35 1332.88 1698.8 1340.09 1725.57 C 1347.23 1752.07 1353.74 1779.5 1366.39 1804.02 C 1370.55 1812.08 1378.98 1815.34 1382.95 1822.55 C 1384.69 1825.71 1385.09 1829.2 1385.42 1832.74 C 1386 1838.95 1383.37 1849.56 1383.84 1852.64 C 1385.14 1861.02 1402.61 1873.34 1409.17 1878.1 C 1425.13 1889.66 1444.07 1898.79 1461.38 1908.2 C 1469.68 1912.72 1478.51 1916.94 1485.78 1923.05 C 1490.82 1927.28 1495.53 1933.06 1496.8 1939.68 C 1497.72 1944.47 1496.45 1949.29 1493.71 1953.28 C 1491.1 1957.06 1487.03 1960.2 1483.3 1962.83 C 1492.77 1962.83 1519.58 1960.26 1526.15 1966.3 C 1527.31 1967.37 1527.08 1968.36 1527.27 1969.83 C 1525.5 1972.48 1524.07 1973.36 1520.89 1973.92 C 1514.32 1975.06 1507.14 1974.03 1500.48 1974.05 C 1485.56 1974.09 1470.05 1973.79 1455.2 1975.07 C 1441.82 1976.22 1428.66 1980.69 1415.55 1983.45 C 1389.1 1989.09 1361.98 1990.89 1335.02 1988.78 C 1316.91 1987.49 1299.18 1983.21 1281.29 1980.34 C 1259.32 1976.81 1236.01 1974.9 1213.77 1974.72 L 600.523 1973.91 C 594.066 1973.92 586.742 1973.28 580.408 1974.21 C 575.537 1974.92 570.814 1976.94 566.006 1978.03 C 560.282 1979.31 553.91 1979.1 548.066 1979.16 C 519.617 1979.46 490.747 1980.14 462.353 1978.33 C 451.924 1977.67 441.829 1974.28 431.484 1973.82 C 395.826 1972.24 359.238 1973.27 323.516 1973.38 C 307.853 1973.42 234.975 1975.89 225.451 1972.46 C 223.958 1970.2 224.176 1969.78 224.287 1967.02 C 226.303 1964.33 227.851 1963.2 231.252 1962.69 C 247.131 1960.3 270.019 1962.01 286.658 1962.05 C 333.396 1962.14 380.81 1963.93 427.48 1961.72 C 399.619 1935.44 389.613 1914.46 370.98 1882.73 C 374.353 1878.75 375.825 1876.57 375.252 1871.16 C 374.918 1868 373.536 1865.67 371.311 1863.46 C 357.364 1858.4 357 1868.82 347.848 1849.2 C 343.815 1840.56 325.897 1798.86 328.554 1791.72 C 329.776 1788.44 332.227 1785.6 334.581 1783.09 C 344.327 1772.67 355.838 1763.41 366.196 1753.54 C 387.539 1732.95 408.69 1712.17 429.647 1691.19 C 444.925 1675.72 457.823 1659.21 472 1642.82 C 484.494 1628.38 497.832 1614.56 509.768 1599.65 C 524.788 1580.89 526.692 1570.42 536.029 1549.69 C 545.358 1529.43 558.276 1511.02 574.158 1495.35 C 605.394 1464.82 643.399 1446.07 683.445 1430.06 C 686.601 1428.8 689.562 1427.39 692.905 1428.72 C 694.602 1430.35 694.193 1430.2 694.365 1432.38 C 691.319 1438.13 687.496 1441.6 681.824 1444.67 C 681.278 1444.96 680.739 1445.27 680.197 1445.57 C 687.897 1457.72 722.094 1514.15 732.646 1517.29 C 740.114 1519.52 840.846 1488.4 855.168 1483.03 C 860.803 1480.92 866.156 1478.35 871.119 1474.92 C 916.932 1443.34 978.955 1354.87 1004.1 1303.87 L 998.266 1297.59 C 995.964 1289.52 946.791 1233.75 937.926 1227.12 C 928.26 1219.88 914.881 1216.17 904.212 1210.17 C 879.078 1196.03 858.725 1178.26 837.677 1158.82 L 830.441 1149.18 C 824.404 1164.44 815.591 1177.96 808.639 1192.73 C 793.025 1225.92 779.006 1259.91 763.449 1293.16 C 749.735 1322.47 733.211 1351.66 722.956 1382.44 C 723.192 1389.38 716.926 1402.88 716.198 1412.52 L 715.822 1417.03 L 714.285 1418.95 C 712.92 1417.78 712.289 1417.39 710.706 1416.72 C 709.027 1417.93 709.072 1417.35 708.851 1419.07 C 707.847 1426.92 730.763 1475.07 736.534 1481.83 C 757.44 1489.35 891.625 1428.82 919.701 1417.8 C 917.597 1420.58 915.403 1423.27 913.177 1425.96 C 900.99 1440.65 884.927 1459.21 868.557 1469.26 C 860.028 1474.49 743.776 1505.38 730.568 1506.6 C 719.493 1486.77 705.861 1468.67 692.57 1450.3 C 693.433 1449.27 694.193 1448.22 694.884 1447.07 C 698.573 1440.92 696.231 1435.79 694.697 1429.28 C 697.298 1420.36 701.172 1411.89 704.031 1403.07 C 708.216 1390.15 711.485 1377.3 716.603 1364.65 C 734.953 1319.28 755.237 1274.29 775.255 1229.61 C 784.999 1207.87 795.83 1186.24 804.269 1163.96 C 806.788 1157.31 811.963 1145.72 810.361 1138.55 C 810.261 1138.1 810.131 1137.66 810.024 1137.22 C 807.119 1125.18 800.995 1113.9 797.064 1102.13 C 784.565 1064.73 786.54 1031.02 795.937 993.313 C 794.134 990.337 792.114 987.343 791.439 983.875 C 789.454 973.679 793.012 961.307 795.637 951.452 C 799.835 935.688 804.177 919.941 810.037 904.702 C 818.587 882.469 832.899 858.919 834.904 834.887 C 837.449 804.384 794.643 711.548 783.109 677.207 C 778.024 674.425 772.953 671.618 767.897 668.784 C 750.954 684.156 741.529 702.399 718.038 708.808 C 712.158 716.598 703.229 724.853 699.45 733.823 C 696.648 740.475 695.558 747.924 693.738 754.898 C 688.199 776.123 684.038 798.631 676.908 819.303 C 655.315 881.909 618.888 939.353 607.859 1005.29 C 614.373 1011.95 621.382 1018.57 626.705 1026.24 C 636.206 1039.93 639.72 1056.15 636.656 1072.43 C 641.726 1079.24 645.754 1086.5 649.324 1094.19 C 646.999 1098.74 644.481 1103.63 641.427 1107.72 C 637.941 1112.4 632.087 1117.19 629.786 1122.48 C 625.753 1131.75 627.003 1141.96 619.842 1150.26 C 618.603 1152.36 617.304 1154.55 615.447 1156.17 C 610.874 1160.16 604.261 1160.27 598.5 1160.08 C 586.665 1159.68 554.276 1160.92 545.977 1151.81 C 540.288 1145.58 538.655 1146.09 530.998 1143.17 C 519.807 1137.34 510.796 1124.01 507.076 1112.16 C 500.431 1090.98 499.756 1054.65 497.844 1031.51 C 491.85 958.971 492.538 888.647 502.518 816.564 C 504.973 798.839 506.995 780.826 511.609 763.512 C 520.823 728.931 535.065 696.758 551.854 665.229 C 554.663 659.954 558.597 651.477 564.389 649.212 C 571.885 649.426 576.694 654.872 582.936 658.253 C 598.78 643.296 615.831 601.127 627.434 580.502 C 640.946 556.481 655.26 533.391 670.512 510.447 C 661.42 491.969 672.271 462.373 678.441 444.163 C 694.166 397.752 723.599 356.325 768.327 334.278 C 788.855 324.16 813.906 318.073 836.792 321.021 C 847.203 311.99 863.846 296.247 878.659 297.393 C 880.391 297.527 882.083 297.817 883.772 298.22 C 903.079 284.325 923.518 272.37 943.215 259.064 C 948.931 258.671 954.382 258.457 960.113 258.827 C 964.461 249.878 970.559 244.119 978.989 239.059 z"/>
<path transform="translate(0,0)" fill="rgb(49,49,50)" d="M 581.665 1136.3 C 584.063 1136.44 585.436 1136.03 586.912 1138.26 C 587.711 1139.47 588.136 1141.55 588.564 1142.96 C 592.01 1146.9 595.628 1151.8 601.367 1152.05 C 603.953 1152.16 606.852 1151.71 609.378 1151.16 C 612.748 1151.6 614.383 1151.02 617.44 1149.6 L 619.842 1150.26 C 618.603 1152.36 617.304 1154.55 615.447 1156.17 C 610.874 1160.16 604.261 1160.27 598.5 1160.08 C 586.665 1159.68 554.276 1160.92 545.977 1151.81 C 540.288 1145.58 538.655 1146.09 530.998 1143.17 C 532.23 1142.58 532.679 1142 534.038 1142.35 C 538.034 1143.37 541.884 1143.52 545.99 1143.45 L 545.055 1144.84 C 549.627 1144.95 560.821 1142.99 564.278 1144.78 L 566.171 1143.85 L 566.511 1142.32 C 570.506 1138.88 576.969 1139.17 581.665 1136.3 z"/>
<path transform="translate(0,0)" fill="rgb(254,254,254)" d="M 566.171 1143.85 L 566.511 1142.32 C 570.506 1138.88 576.969 1139.17 581.665 1136.3 C 583.114 1139.2 585.415 1143.2 584.681 1146.52 C 584.607 1146.86 584.457 1147.17 584.345 1147.49 C 580.904 1148.49 577.367 1146.27 574.218 1144.79 C 571.766 1143.64 570.627 1143.35 567.881 1143.68 C 567.312 1143.75 566.741 1143.79 566.171 1143.85 z"/>
<path transform="translate(0,0)" fill="rgb(254,254,254)" d="M 545.055 1144.84 C 549.627 1144.95 560.821 1142.99 564.278 1144.78 L 566.936 1150.38 C 560.007 1150.16 550.831 1148.69 545.055 1144.84 z"/>
<path transform="translate(0,0)" fill="rgb(254,254,254)" d="M 588.564 1142.96 L 593.511 1142.45 C 593.088 1140.21 592.459 1139.11 591.343 1137.17 C 595.404 1131.83 601.582 1134.8 607.577 1123.88 C 607.722 1123.62 607.892 1123.37 608.05 1123.11 C 611.319 1126.06 613.854 1128.04 614.944 1132.39 C 615.056 1132.84 615.183 1133.28 615.294 1133.73 C 615.899 1136.16 616.339 1137.88 615.398 1140.3 C 613.228 1141.77 612.543 1141.73 609.885 1141.93 C 606.756 1140.42 604.729 1138.39 602.282 1135.95 C 600.095 1135.55 598.868 1135.31 596.913 1136.82 C 595.12 1138.21 595.208 1139.37 595.231 1141.37 C 598.659 1145.78 605.002 1147.68 609.378 1151.16 C 606.852 1151.71 603.953 1152.16 601.367 1152.05 C 595.628 1151.8 592.01 1146.9 588.564 1142.96 z"/>
<path transform="translate(0,0)" fill="rgb(254,254,254)" d="M 1011.08 1317.75 C 1019.61 1325.11 1027.24 1334.54 1034.78 1342.9 C 1059.69 1370.52 1082.09 1400.54 1108.48 1426.78 C 1112.32 1441.8 1118.43 1456.36 1122.75 1471.31 C 1119.18 1481.68 1116.03 1491.88 1114.16 1502.72 C 1108.6 1535.02 1108.11 1589.66 1118.55 1620.85 C 1124.18 1637.71 1134.5 1654.29 1141.95 1670.54 C 1160.22 1710.45 1178.97 1755.73 1189.22 1798.42 C 1185.9 1801.42 1181.69 1804.76 1179.44 1808.67 C 1174.99 1816.39 1181.83 1831.71 1184.25 1839.91 C 1190.08 1859.65 1192.79 1881.85 1194.16 1902.39 C 1194.91 1913.6 1193.15 1927.55 1196.64 1938.17 C 1200.95 1951.3 1217.87 1957.09 1229.22 1962.36 C 1183.5 1964.03 1137.18 1961.97 1091.39 1962.02 L 748.5 1962 L 577.544 1961.91 C 577.467 1957.05 577.659 1951.77 576.19 1947.1 C 569.644 1926.29 539.609 1904.52 525.827 1885.9 L 524.877 1884.6 C 524.998 1875.12 525.865 1865.56 526.419 1856.09 L 538.06 1854.72 C 540.679 1844.51 543.013 1834.23 545.693 1824.03 C 544.386 1820.04 542.781 1816.58 540.737 1812.91 C 571.447 1763.16 614.607 1723.52 657.831 1684.93 C 674.065 1670.44 690.37 1654.95 708.575 1642.93 C 729.976 1628.81 761.186 1617.93 784.341 1604.88 C 797.796 1597.3 881.753 1518.67 889.756 1505.98 C 886.644 1496.43 883.6 1491.66 876.288 1484.67 C 888.592 1473.33 901.817 1463.01 913.41 1450.89 C 925.429 1438.33 935.615 1424.07 946.111 1410.24 C 957.248 1395.57 968.613 1380.98 979.279 1365.96 C 990.198 1350.59 998.428 1331.64 1011.08 1317.75 z"/>
<path transform="translate(0,0)" fill="rgb(128,89,90)" d="M 704.324 1668.64 C 712.005 1669.54 735.393 1682.32 744.701 1685.99 C 766.393 1694.55 788.568 1702.7 810.991 1709.11 C 892.182 1732.93 976.807 1742.88 1061.31 1738.56 C 1092.33 1736.73 1122.96 1731.5 1153.86 1729.56 L 1172.4 1781.58 C 1160.68 1783.8 1148.59 1785.02 1136.77 1786.69 C 997.293 1802.39 871.624 1791.66 740.124 1741.65 C 715.712 1732.36 682.98 1720.63 662.298 1704.87 C 674.636 1691.64 690.39 1680.22 704.324 1668.64 z"/>
<path transform="translate(0,0)" fill="rgb(254,254,254)" d="M 615.868 1482.01 C 632.869 1471.74 650.189 1459.84 668.588 1452.31 C 678.018 1469.83 691.173 1485.92 702.995 1501.89 C 710.94 1512.63 718.701 1524.29 727.549 1534.25 C 715.808 1566.29 701.689 1597.78 686.846 1628.49 C 690.391 1631.21 693.958 1633.91 697.547 1636.57 C 693.601 1639.63 689.717 1642.58 685.447 1645.19 C 682.107 1641.12 678.7 1637.09 675.427 1632.97 C 673.604 1634.98 672.502 1636.8 672.529 1639.58 C 672.543 1641.04 672.954 1642.51 673.263 1643.93 L 674.159 1648.13 C 672.935 1652.82 669.368 1655.63 665.886 1658.74 C 664.618 1659.88 665.127 1659.35 664.089 1660.65 C 656.076 1671.69 636.93 1685.31 625.92 1695.06 C 592.108 1725.01 540.819 1776.3 523.96 1818.29 C 486.274 1817.37 448.678 1813.12 410.939 1812.96 C 418.443 1801.95 424.262 1789.66 431.359 1778.35 C 442.499 1760.59 455.445 1743.84 468.588 1727.53 C 459.998 1719.52 452.568 1709.63 446.463 1699.63 C 435.41 1713.41 422.477 1725.8 410.363 1738.64 C 400.532 1749.07 391.341 1759.93 382.258 1771.01 C 385.333 1786.51 390.824 1801.81 394.887 1817.11 C 397.756 1827.93 399.254 1839.01 399.556 1839.2 C 406.366 1843.35 500.639 1838.67 518.252 1841.35 C 520.787 1841.74 522.328 1842.52 524.299 1844.21 C 525.109 1846.4 525.322 1846.77 524.854 1849.03 C 517.578 1854.44 405.379 1852.7 389.57 1850.77 C 387.276 1849.2 387.01 1849.25 386.206 1846.63 C 386.83 1843.77 388.475 1842.15 390.327 1839.99 L 391.181 1839.01 C 392.654 1830.48 377.18 1789.96 376.131 1775.85 C 375.626 1769.07 377.467 1764.77 381.41 1759.36 C 397.855 1736.77 426.98 1713.19 446.405 1691.69 C 470.557 1664.95 491.548 1635.09 515.564 1608.2 C 507.559 1627.72 468.487 1680.15 453.743 1696.35 C 459.91 1705.21 465.772 1714.31 471.747 1723.31 C 482.158 1706.77 494.486 1691.29 506.107 1675.59 C 511.937 1667.71 518.898 1659.67 522.988 1650.74 C 527.92 1639.97 529.03 1626.31 532.203 1614.8 C 547.937 1557.76 558.825 1529.46 603.677 1488.25 C 601.556 1494.45 599.801 1501.06 596.096 1506.52 C 603.046 1507.75 610.061 1504.16 617.272 1504.29 L 615.868 1482.01 z"/>
<path transform="translate(0,0)" fill="rgb(80,79,80)" d="M 617.272 1504.29 C 620.845 1527.03 624.542 1550.19 629.184 1572.73 C 619.575 1598.59 610.071 1626.63 605.028 1653.73 C 620.923 1659.21 636.599 1663.76 653.07 1667.22 C 610.913 1699.11 575.206 1727.06 543.991 1770.39 C 534.867 1783.06 526.559 1795.52 520.054 1809.76 C 488.947 1807.32 457.655 1807.58 426.609 1804.78 C 446.819 1770.38 470.89 1737.72 494.445 1705.53 C 504.345 1692 523.255 1669.47 529.9 1655.2 C 535.479 1643.21 538.004 1628.78 541.428 1616 C 551.453 1578.58 565.197 1532.11 596.096 1506.52 C 603.046 1507.75 610.061 1504.16 617.272 1504.29 z"/>
<path transform="translate(0,0)" fill="rgb(80,79,80)" d="M 624.776 1489.41 C 637.567 1480.22 651.065 1471.85 664.243 1463.21 C 677.825 1481.78 701.966 1522.55 718.584 1536.1 C 709.865 1553.98 701.384 1571.99 693.142 1590.1 C 686.729 1604.01 679.43 1618.13 675.427 1632.97 C 673.604 1634.98 672.502 1636.8 672.529 1639.58 C 672.543 1641.04 672.954 1642.51 673.263 1643.93 L 674.159 1648.13 C 672.935 1652.82 669.368 1655.63 665.886 1658.74 C 664.618 1659.88 665.127 1659.35 664.089 1660.65 C 648.783 1654.37 631.078 1653.23 615.189 1648.03 C 622.271 1623.5 629.433 1598.07 639.52 1574.62 C 635.124 1546.08 627.27 1518.25 624.776 1489.41 z"/>
<path transform="translate(0,0)" fill="rgb(254,254,254)" d="M 1125.65 1523.28 C 1127.22 1524.24 1126.8 1523.83 1127.85 1524.91 C 1142.77 1540.26 1162.96 1547.33 1182.71 1554.1 C 1188.99 1556.25 1196.33 1558.16 1201.75 1562.09 C 1209.77 1567.9 1252.83 1635.01 1261.49 1647.64 C 1276.86 1643.83 1292.01 1639.12 1307.42 1635.37 C 1312.82 1673.57 1337.86 1793.81 1360.39 1819.99 C 1349.72 1823.24 1339.7 1827.06 1329.71 1832.04 C 1308.04 1844.93 1303.45 1853.7 1289.09 1872.65 C 1281.61 1848.37 1268.12 1826.98 1258.57 1803.6 C 1251.33 1785.79 1244.36 1767.87 1237.64 1749.86 C 1233.14 1737.59 1229.31 1724.54 1223.44 1712.88 C 1212.58 1707.39 1205.23 1704.38 1197.03 1694.86 C 1186.04 1682.11 1135.47 1617.7 1131.42 1605.86 C 1124.95 1586.95 1124.16 1543.83 1125.65 1523.28 z"/>
<path transform="translate(0,0)" fill="rgb(254,254,254)" d="M 996.397 1117.1 C 997.571 1116.81 998.71 1116.98 999.909 1117.03 C 1013.09 1126.01 1025.34 1142.9 1035.61 1155.06 C 1068.29 1193.78 1102.68 1236.42 1121.63 1283.87 C 1126.76 1296.71 1130.22 1309.97 1133.79 1323.31 C 1110.79 1321.93 1087.71 1318.94 1064.75 1316.82 C 1053.97 1315.6 1043.17 1314.6 1032.34 1313.82 C 994.726 1272.2 958.067 1229.74 919.397 1189.07 C 918.575 1170.78 919.795 1152.89 921.832 1134.74 C 945.692 1126.51 971.996 1124.12 996.397 1117.1 z"/>
<path transform="translate(0,0)" fill="rgb(254,254,254)" d="M 1024.07 442.193 C 1032.05 446.296 1039.74 451.906 1047.28 456.798 L 1096.65 489.258 C 1107.96 496.561 1121.66 502.333 1131.69 511.189 C 1139.61 511.129 1151 512.344 1158.18 508.917 C 1166.16 505.11 1168.31 495.514 1171.11 487.92 C 1189.58 506.554 1196.06 525.621 1203.05 550.459 C 1214.81 592.244 1219.23 634.028 1197.02 673.646 C 1192.15 681.299 1186.14 688.116 1180.32 695.053 C 1163.68 689.265 1145.39 685.53 1128.06 682.387 C 1119.82 658.607 1113.03 633.78 1106.29 609.519 C 1102.98 597.583 1097.48 569.663 1091.52 560.118 C 1083.25 546.855 1023.25 503.432 1007.08 492.278 C 1013 475.671 1018.66 458.973 1024.07 442.193 z"/>
<path transform="translate(0,0)" fill="rgb(49,49,50)" d="M 1208.02 590.751 C 1209.37 595.753 1209.33 601.864 1209.36 607.038 C 1209.42 619.602 1207.06 633.229 1197.62 642.319 C 1191.95 647.775 1184.26 650.423 1176.44 650.081 C 1166.81 649.659 1158.81 643.895 1152.61 636.907 C 1137.18 619.52 1129.02 592.8 1130.69 569.734 C 1131.54 558 1136.15 544.608 1145.57 536.995 C 1151.46 532.226 1159.12 530.218 1166.59 531.482 C 1179.41 533.568 1188.33 545.358 1195.42 555.312 C 1201.4 564.093 1208.48 579.928 1208.02 590.751 z"/>
<path transform="translate(0,0)" fill="rgb(60,59,60)" d="M 1136.68 579.896 C 1136.52 576.267 1136.31 572.569 1136.65 568.946 C 1137.53 559.479 1141.54 549.417 1149.18 543.399 C 1153.93 539.656 1159.7 538.004 1165.7 538.863 C 1177.64 540.572 1186.9 550.045 1193.6 559.376 C 1201.49 571.686 1204.75 588.074 1205.7 602.536 C 1205.3 613.993 1203.09 628.364 1194.46 636.653 C 1190.28 640.667 1185.56 641.811 1179.89 641.583 C 1176.97 641.465 1174.57 640.806 1171.98 639.428 C 1170.62 639.108 1169.3 638.813 1168.01 638.245 C 1153.93 632.011 1145.62 612.96 1141.71 598.927 C 1140.11 593.201 1139.38 586.974 1137.28 581.433 L 1136.68 579.896 z"/>
<path transform="translate(0,0)" fill="rgb(250,87,91)" d="M 1154.96 558.253 C 1154.98 556.603 1155.23 555.714 1155.73 554.173 C 1161.25 549.554 1169.29 551.833 1176 552.003 C 1188.92 560.581 1195.26 572.418 1198.38 587.358 C 1201.18 600.777 1200.87 618.22 1193.3 630.106 C 1190.81 634.018 1187.36 636.849 1182.7 637.581 C 1178.23 638.283 1171.46 637.05 1167.85 634.227 C 1166.42 633.113 1166.8 633.554 1166.12 632.326 C 1162.18 626.188 1156.75 621.878 1156.16 614.161 C 1146.56 599.638 1143.7 585.188 1146.26 567.995 C 1148.88 564.064 1151.19 561.147 1154.96 558.253 z"/>
<path transform="translate(0,0)" fill="rgb(254,254,254)" d="M 1154.96 558.253 C 1162.33 559.069 1166.95 561.514 1171.56 567.465 C 1179.05 577.14 1182.53 592.54 1180.97 604.63 C 1180.35 609.384 1178.54 615.635 1174.2 618.366 C 1171.41 620.124 1168.89 620.511 1165.73 619.707 C 1162.06 618.771 1159.02 616.541 1156.16 614.161 C 1146.56 599.638 1143.7 585.188 1146.26 567.995 C 1148.88 564.064 1151.19 561.147 1154.96 558.253 z"/>
<path transform="translate(0,0)" fill="rgb(214,71,73)" d="M 1144.38 556.726 C 1146.77 552.445 1151.27 548.06 1156.15 546.851 C 1163.6 545.008 1169.81 548.327 1176 552.003 C 1169.29 551.833 1161.25 549.554 1155.73 554.173 C 1155.23 555.714 1154.98 556.603 1154.96 558.253 C 1151.19 561.147 1148.88 564.064 1146.26 567.995 C 1143.7 585.188 1146.56 599.638 1156.16 614.161 C 1156.75 621.878 1162.18 626.188 1166.12 632.326 L 1162.12 630.258 L 1161.64 631.151 L 1161.49 630.122 L 1160.79 630.254 C 1164.19 633.89 1168.46 636.028 1171.98 639.428 C 1170.62 639.108 1169.3 638.813 1168.01 638.245 C 1153.93 632.011 1145.62 612.96 1141.71 598.927 C 1140.11 593.201 1139.38 586.974 1137.28 581.433 L 1136.68 579.896 L 1138.97 581.267 C 1141.78 572.925 1139.81 565.31 1144.38 556.726 z"/>
<path transform="translate(0,0)" fill="rgb(254,254,254)" d="M 803.03 342.243 C 807.274 341.625 811.345 341.724 815.58 342.437 C 840.589 346.647 865.194 365.364 879.464 385.852 C 893.681 406.265 897.299 427.765 893.094 451.953 C 878.618 451.771 864.101 451.417 849.626 451.636 C 840.267 451.778 830.419 451.929 821.507 455.101 C 800.091 462.724 774.311 494.008 758.203 510.599 C 754.076 515.191 750.13 520.313 745.721 524.606 C 742.395 527.845 739.414 529.388 734.718 529.098 C 717.258 528.016 693.772 511.151 682.821 498.116 C 689.686 466.455 695.164 436.758 713.183 408.894 C 733.14 378.033 766.395 349.987 803.03 342.243 z"/>
<path transform="translate(0,0)" fill="rgb(49,49,50)" d="M 762.065 392.154 C 767.242 391.749 772.245 391.5 777.226 393.252 C 783.022 395.291 787.711 399.304 790.088 405.026 C 793.109 412.301 792.132 420.698 789.025 427.77 C 784.294 438.539 776.355 444.636 765.711 448.759 C 761.215 449.069 756.608 449.365 752.213 448.139 C 746.415 446.52 741.4 443.037 738.613 437.614 C 735.139 430.857 735.434 422.464 737.911 415.438 C 742.086 403.593 751.187 397.198 762.065 392.154 z"/>
<path transform="translate(0,0)" fill="rgb(254,254,254)" d="M 753.8 440.81 C 749.511 439.64 746.745 438.449 744.583 434.374 C 741.972 429.455 742.364 423.596 744.035 418.449 C 746.57 410.636 752.424 403.179 760.013 399.762 C 763.226 398.315 766.407 398.074 769.866 398.569 C 775.212 401.88 777.802 404.514 779.425 410.738 C 781.103 417.175 779.347 424.296 775.719 429.769 C 772.695 434.328 767.535 438.976 762.027 440.046 C 759.343 440.568 756.526 440.668 753.8 440.81 z"/>
<path transform="translate(0,0)" fill="rgb(49,49,50)" d="M 744.822 418.696 C 749.089 412.306 752.914 406.656 760.975 404.988 C 762.434 404.699 763.904 404.465 765.38 404.285 L 766.935 406.034 C 762.41 414.48 748.187 412.889 751.712 426.536 C 752.778 430.664 754.646 434.365 755.355 438.618 L 753.8 440.81 C 749.438 438.14 746.417 435.65 745.255 430.447 C 744.427 426.742 744.69 422.488 744.822 418.696 z"/>
<path transform="translate(0,0)" fill="rgb(254,254,254)" d="M 958.716 952.408 C 960.446 952.488 960.24 952.303 961.552 952.843 C 969.659 956.184 977.274 961.884 984.992 966.115 C 1085.95 1021.46 1172.92 1142.21 1216.95 1246.62 C 1199.4 1251.73 1190.53 1259.96 1178.31 1272.97 C 1176.59 1274.98 1175.05 1276.43 1172.93 1278.01 C 1168.97 1275.48 1165.79 1266 1163.71 1261.59 C 1150.66 1233.88 1133.26 1205.84 1115.51 1180.9 C 1060.91 1104.21 997.394 1034.62 921.448 978.644 C 923.841 974.72 926.178 970.564 928.981 966.921 C 936.987 956.516 946.303 953.968 958.716 952.408 z"/>
<path transform="translate(0,0)" fill="rgb(254,254,254)" d="M 918.011 983.91 C 1010.07 1049.58 1102.27 1157.6 1153.77 1258.01 C 1159.48 1269.13 1166.86 1279.98 1171.03 1291.79 C 1178.26 1312.23 1185.81 1376.36 1176.79 1395.54 C 1168.21 1399.32 1107.47 1391.59 1094.3 1390.03 C 1088.83 1384.73 1084.08 1378.95 1079.26 1373.05 C 1070.23 1361.65 1060.34 1350.98 1051.38 1339.5 C 1077.6 1345.34 1104.93 1346.11 1131.36 1350.89 C 1135.28 1346.63 1138.93 1342.26 1142.51 1337.71 C 1139.29 1306.79 1128.55 1279.63 1113.89 1252.48 C 1075.4 1181.18 999.962 1100.3 936.836 1049.48 C 923.147 1038.46 907.639 1024.75 890.634 1019.67 C 899.981 1007.93 909.514 996.291 918.011 983.91 z"/>
<path transform="translate(0,0)" fill="rgb(254,254,254)" d="M 955.314 485.599 C 957.126 486.649 958.921 487.728 960.698 488.836 C 982.625 502.67 1069.31 562.856 1079.58 580.726 C 1087.09 593.778 1105.42 667.199 1109.77 686.857 C 1093.77 693.222 1078.32 702.098 1063.05 710.06 C 1056.73 703.927 1051.21 695.58 1045.62 688.68 C 1035.05 675.625 1024.08 662.699 1012.54 650.48 C 989.117 625.58 964.428 601.904 938.569 579.546 C 929.639 571.807 919.699 565.358 910.882 557.517 L 909.907 556.636 C 912.716 547.783 915.009 537.305 919.392 529.143 C 924.036 520.495 932.785 513.197 939.306 505.825 C 945.039 499.345 950.202 492.566 955.314 485.599 z"/>
<path transform="translate(0,0)" fill="rgb(254,254,254)" d="M 786.009 656.028 C 800.586 665.478 812.001 670.793 829.813 667.121 C 845.468 663.893 871.652 651.432 885.223 650.788 C 887.772 650.667 889.88 651.397 891.969 652.774 C 910.42 664.937 955.075 720.789 970.484 740.481 C 977.414 748.258 983.984 756.067 992.415 762.297 C 998.387 762.343 1004.46 762.167 1010.41 762.497 C 1010.52 770.819 1010.81 779.185 1010.55 787.503 L 1013.39 787.804 C 1014.39 789.039 1015.31 790.162 1016.11 791.538 C 1031.02 812.27 1060.75 865.403 1077.8 879.019 C 1089.67 879.208 1101.54 878.371 1113.27 876.518 C 1106.5 897.984 1100.09 922.196 1090.12 942.363 C 1084.8 943.37 1079.58 943.627 1074.2 943.877 C 1064.06 929.885 1055.7 913.735 1047.03 898.769 C 1036.48 880.553 1025.26 862.366 1016.06 843.423 C 1010.41 831.8 1007.48 818.789 1001.17 807.525 C 957.156 784.626 917.285 753.743 878.561 722.958 C 862.383 710.096 846.389 695.348 829.076 684.192 C 835.654 682.968 842.218 681.57 848.908 681.152 C 858.128 669.636 881.918 673.336 894.223 666.367 C 886.015 661.453 877.333 663.629 868.532 665.873 C 849.093 670.83 822.921 681.828 802.816 675.539 C 793.622 672.664 784.917 667.206 776.562 662.509 C 779.643 660.237 782.661 657.899 786.009 656.028 z"/>
<path transform="translate(0,0)" fill="rgb(80,79,80)" d="M 786.009 656.028 C 800.586 665.478 812.001 670.793 829.813 667.121 C 845.468 663.893 871.652 651.432 885.223 650.788 C 887.772 650.667 889.88 651.397 891.969 652.774 C 910.42 664.937 955.075 720.789 970.484 740.481 C 977.414 748.258 983.984 756.067 992.415 762.297 C 998.387 762.343 1004.46 762.167 1010.41 762.497 C 1010.52 770.819 1010.81 779.185 1010.55 787.503 C 998.122 785.995 978.124 766.102 966.769 767.683 L 965.789 769.565 C 958.685 766.447 951.16 760.076 944.713 755.619 C 911.335 732.539 880.01 707.177 848.908 681.152 C 858.128 669.636 881.918 673.336 894.223 666.367 C 886.015 661.453 877.333 663.629 868.532 665.873 C 849.093 670.83 822.921 681.828 802.816 675.539 C 793.622 672.664 784.917 667.206 776.562 662.509 C 779.643 660.237 782.661 657.899 786.009 656.028 z"/>
<path transform="translate(0,0)" fill="rgb(254,254,254)" d="M 786.009 656.028 C 800.586 665.478 812.001 670.793 829.813 667.121 C 845.468 663.893 871.652 651.432 885.223 650.788 C 887.772 650.667 889.88 651.397 891.969 652.774 C 910.42 664.937 955.075 720.789 970.484 740.481 C 964.301 738.594 907.458 677.586 894.223 666.367 C 886.015 661.453 877.333 663.629 868.532 665.873 C 849.093 670.83 822.921 681.828 802.816 675.539 C 793.622 672.664 784.917 667.206 776.562 662.509 C 779.643 660.237 782.661 657.899 786.009 656.028 z"/>
<path transform="translate(0,0)" fill="rgb(49,49,50)" d="M 965.789 769.565 L 966.769 767.683 C 978.124 766.102 998.122 785.995 1010.55 787.503 L 1013.39 787.804 C 1014.39 789.039 1015.31 790.162 1016.11 791.538 C 1014.25 792.196 1012.46 792.798 1010.52 793.172 C 1001.3 794.949 974.523 775.223 965.789 769.565 z"/>
<path transform="translate(0,0)" fill="rgb(254,254,254)" d="M 1146.27 259.159 C 1157.74 236.154 1182.91 233.149 1190.41 220.81 C 1197.33 209.428 1182.06 169.804 1179 156.491 C 1175.45 141.023 1180.48 127.971 1188.53 114.971 C 1225.36 145.999 1235.73 198.334 1241.4 243.911 C 1234.83 245.297 1210.87 247.378 1207.43 251.986 C 1207.28 256.239 1211.88 266.444 1213.07 271.689 L 1213.48 270.782 L 1213.48 272.941 C 1213.62 269.916 1213.5 267.117 1215.68 264.907 C 1226.74 268.362 1237.57 277.981 1250.61 282.358 C 1261.88 288.153 1282.48 292.099 1295.24 291.451 L 1300.11 292.513 C 1301.37 295.814 1283.76 344.619 1280.9 351.182 C 1279.91 353.466 1279.29 354.709 1277.03 355.759 L 1276.18 357.928 C 1263.18 362.773 1215.53 377.545 1203.8 374.929 C 1202.59 374.164 1201.25 373.398 1200.14 372.485 C 1199.55 372.008 1197.91 370.464 1197.62 369.876 C 1196.52 367.613 1197.51 323.75 1197.02 316.298 C 1196.66 310.68 1196.07 304.214 1193.56 299.126 C 1187.19 286.24 1158.23 269.581 1146.27 259.159 z"/>
<path transform="translate(0,0)" fill="rgb(89,41,44)" d="M 1217.64 368.962 C 1216 366.988 1215.36 366.305 1214.98 363.696 C 1213.25 351.967 1215.62 338.361 1216.37 326.548 C 1216.99 316.65 1216.79 307.071 1216.12 297.19 C 1223.38 318.36 1219.07 339.661 1222.72 360.945 C 1224.72 363.731 1225.95 363.918 1229.05 365.222 C 1225.28 366.951 1221.67 368.016 1217.64 368.962 z"/>
<path transform="translate(0,0)" fill="rgb(250,87,91)" d="M 1229.05 365.222 C 1245.32 363.241 1260.66 357.076 1277.03 355.759 L 1276.18 357.928 C 1263.18 362.773 1215.53 377.545 1203.8 374.929 C 1208.46 373.24 1213.58 371.854 1217.64 368.962 C 1221.67 368.016 1225.28 366.951 1229.05 365.222 z"/>
<path transform="translate(0,0)" fill="rgb(254,254,254)" d="M 561.574 677.72 C 561.825 677.983 562.106 678.222 562.329 678.509 C 564.096 680.779 564.423 683.594 564.669 686.364 C 566.781 710.093 566.349 734.509 567.315 758.355 C 568.066 776.897 572.822 831.67 569.856 845.839 C 563.856 874.506 552.053 905.844 543.501 934.171 C 538.604 950.39 533.27 966.866 532.472 983.896 C 527.43 984.72 522.317 985.25 517.248 985.897 L 506.497 986.62 C 504.367 897.128 508.399 790.375 545.87 707.867 C 550.554 697.552 555.119 687.075 561.574 677.72 z"/>
<path transform="translate(0,0)" fill="rgb(49,49,50)" d="M 543.283 731.577 L 545.716 733.245 C 551.211 744.086 545.623 784.786 543.007 797.23 C 541.068 806.457 537.775 823.91 529.456 829.376 C 525.149 824.228 524.488 818.813 524.262 812.299 C 523.593 792.967 529.707 745.965 543.283 731.577 z"/>
<path transform="translate(0,0)" fill="rgb(254,254,254)" d="M 541.489 743.723 C 544.455 761.873 538.335 803.214 529.947 819.319 C 525.887 803.767 536.036 759.341 541.489 743.723 z"/>
<path transform="translate(0,0)" fill="rgb(254,254,254)" d="M 1071.38 161.532 C 1105.35 156.051 1137.3 179.244 1142.6 213.24 C 1147.91 247.236 1124.55 279.063 1090.53 284.196 C 1056.75 289.292 1025.21 266.141 1019.94 232.39 C 1014.67 198.64 1037.66 166.974 1071.38 161.532 z"/>
<path transform="translate(0,0)" fill="rgb(60,59,60)" d="M 1071.91 171.433 C 1100.14 166.533 1126.99 185.448 1131.88 213.675 C 1136.77 241.902 1117.84 268.747 1089.61 273.627 C 1061.4 278.504 1034.57 259.591 1029.68 231.378 C 1024.8 203.165 1043.7 176.331 1071.91 171.433 z"/>
<path transform="translate(0,0)" fill="rgb(98,87,89)" d="M 1121.26 212.377 C 1123.81 216.925 1123.6 225.231 1122.56 230.26 C 1120.15 241.863 1111.7 252.998 1101.55 259.007 C 1092.02 264.648 1077.12 266.855 1066.62 263.919 C 1056.35 261.051 1048.07 253.242 1043.27 243.878 C 1037.57 232.753 1036.5 219.119 1040.66 207.297 C 1044.26 196.911 1051.97 188.46 1061.99 183.924 C 1066.96 181.645 1081.67 177.461 1086.8 179.344 C 1097.5 180.983 1108.05 183.708 1114.78 192.975 C 1118.8 198.517 1120.75 205.611 1121.26 212.377 z"/>
<path transform="translate(0,0)" fill="rgb(254,254,254)" d="M 1086.8 179.344 C 1097.5 180.983 1108.05 183.708 1114.78 192.975 C 1118.8 198.517 1120.75 205.611 1121.26 212.377 C 1113.9 202.25 1110.37 191.736 1098.04 185.948 C 1093.81 183.958 1088.3 183.255 1084.67 180.318 L 1086.8 179.344 z"/>
<path transform="translate(0,0)" fill="rgb(254,254,254)" d="M 1202.2 1479.59 L 1214.54 1478.59 C 1229.71 1498.07 1241.37 1525.06 1258.24 1542.1 C 1273.5 1541.97 1288.57 1538.12 1303.23 1534.23 C 1303.83 1545.89 1306.63 1603.26 1304.41 1610.77 C 1291.16 1609.93 1276.12 1617.38 1263.76 1621.83 L 1256.7 1611.5 C 1244.94 1594.82 1227.97 1564.1 1214.07 1550.98 C 1206.68 1544 1195.96 1540.37 1186.85 1536.16 C 1172.06 1529.32 1155.16 1521.81 1142.56 1511.39 C 1142.23 1511.11 1141.89 1510.83 1141.56 1510.54 C 1138.87 1501.47 1138.52 1491.63 1137.69 1482.24 C 1159.23 1482.99 1180.8 1482.11 1202.2 1479.59 z"/>
<path transform="translate(0,0)" fill="rgb(80,79,80)" d="M 889.178 1021.34 C 898.531 1030.85 910.708 1038.17 921.352 1046.24 C 942.475 1062.25 972.759 1086.25 990.407 1105.59 L 996.204 1111.86 C 974.809 1116.45 931.436 1121.51 914.065 1131.32 C 913.044 1150.72 911.193 1170.58 911.912 1189.99 C 888.334 1167.8 874.861 1142.51 864.359 1112.19 C 861.47 1103.85 857.912 1095.04 857.928 1086.06 C 857.929 1085.19 858.11 1084.33 858.122 1083.46 C 858.136 1082.56 858.017 1081.69 857.623 1080.88 C 860.8 1077.34 867.573 1074.72 871.847 1072.4 C 871.881 1067.11 871.961 1062.11 872.961 1056.89 C 873.311 1061.04 873.627 1065.07 873.413 1069.25 C 880.959 1054.09 881.97 1036.45 889.178 1021.34 z"/>
<path transform="translate(0,0)" fill="rgb(254,254,254)" d="M 571.58 682.469 C 576.373 685.427 581.648 688.209 584.378 693.382 C 595.119 713.732 589.097 813.114 594.808 842.362 C 599.215 864.93 612.806 889.098 623.547 909.348 C 614.73 928.346 607.531 948.176 601.19 968.121 C 592.888 971.303 584.288 973.356 575.688 975.547 C 562.818 978.135 550.216 981.893 537.184 983.67 C 544.683 955.844 553.447 928.426 561.994 900.912 C 567.142 884.339 573.186 867.544 576.251 850.451 C 579.974 829.685 576.238 805.727 575.556 784.604 C 574.46 750.617 574.567 716.345 571.58 682.469 z"/>
<path transform="translate(0,0)" fill="rgb(254,254,254)" d="M 1144.33 1640.66 C 1149.48 1644.63 1153.8 1651.95 1157.59 1657.29 C 1174.01 1680.45 1189.89 1711.07 1217.12 1722.68 C 1234.5 1775.86 1258.4 1827.72 1283.97 1877.39 C 1275.5 1886.93 1268.26 1897.29 1261.04 1907.77 C 1255.04 1908.41 1249.16 1908.12 1243.15 1907.87 C 1228.32 1880.81 1214.15 1850.64 1204.02 1821.51 C 1208.07 1826.52 1212.08 1831.55 1216.04 1836.62 C 1212.8 1827.96 1210.86 1818.57 1208.46 1809.63 C 1204.18 1793.65 1199.84 1777.73 1194.76 1761.98 C 1181.01 1719.32 1163.35 1681.05 1144.33 1640.66 z"/>
<path transform="translate(0,0)" fill="rgb(254,254,254)" d="M 860.322 1496.28 C 864.002 1496.43 867.553 1497.68 870.519 1499.86 C 872.7 1501.48 873.132 1502.59 873.598 1505.18 C 869.371 1513.7 801.455 1577.81 791.776 1583.85 C 768.181 1598.57 740.809 1609.38 715.549 1621 L 706.185 1625.69 C 711.245 1608.2 718.121 1591.03 724.973 1574.17 C 729.08 1564.05 734.611 1553.38 736.805 1542.75 C 737.535 1539.21 738.366 1535.69 739.15 1532.16 C 754.623 1525.46 774.515 1521.87 790.955 1516.92 C 812.777 1510.35 838.065 1499.92 860.322 1496.28 z"/>
<path transform="translate(0,0)" fill="rgb(80,79,80)" d="M 859.464 1502.13 C 859.979 1502.05 860.493 1501.96 861.011 1501.9 C 864.511 1501.5 866.062 1501.58 868.741 1503.72 L 868.661 1506.03 C 865.941 1510.43 797.616 1571.08 791.189 1575.07 C 774.344 1585.52 747.29 1595.37 728.345 1605.01 L 721.103 1609.06 C 731.419 1586.89 741.943 1562.67 748.251 1539.05 C 785.792 1530.45 823.875 1516.64 859.464 1502.13 z"/>
<path transform="translate(0,0)" fill="rgb(98,87,89)" d="M 1030.2 97.3445 C 1067.21 95.8186 1095.99 99.2371 1127.42 120.788 C 1165.43 146.84 1178.52 170.686 1186.89 215.486 C 1181 219.632 1174.79 223.383 1168.71 227.253 C 1162.94 231.114 1157.57 235.217 1152.22 239.639 C 1152.01 221.997 1153.52 204.31 1145.26 188.085 C 1137.01 171.907 1122.06 159.744 1104.86 154.152 C 1086.1 148.053 1062.88 149.534 1045.23 158.344 C 1038.41 138.162 1030.88 118.897 1030.2 97.3445 z"/>
<path transform="translate(0,0)" fill="rgb(254,254,254)" d="M 1258.31 1313.19 C 1266.98 1313.28 1275.18 1314.5 1283.56 1316.66 C 1287.05 1328.44 1289.3 1340.9 1291.79 1352.92 C 1301.41 1399.4 1305.53 1444.75 1304.91 1492.21 L 1294.39 1495.37 C 1286.02 1497.46 1277.54 1499.21 1269.12 1501.09 L 1254.04 1470.13 C 1259.8 1417.98 1254.61 1365.35 1258.31 1313.19 z"/>
<path transform="translate(0,0)" fill="rgb(254,254,254)" d="M 1051.18 748.752 C 1057.66 749.265 1084.56 791.988 1091.41 799.725 C 1106.95 803.431 1124.09 803.002 1139.99 803.667 C 1131.73 825.032 1125.29 848.423 1115.59 869.068 C 1112.98 870.8 1109.28 870.551 1106.23 870.769 C 1097.21 871.317 1088 870.873 1078.96 870.815 C 1063.88 851.284 1027.24 799.686 1019.49 778.179 C 1017.84 773.618 1017.83 768.501 1017.59 763.701 C 1029.17 759.379 1040.45 754.939 1051.18 748.752 z"/>
<path transform="translate(0,0)" fill="rgb(80,79,80)" d="M 905.545 788.567 C 887.548 776.975 824.651 731.137 813.686 716.347 C 810.698 712.316 799.612 687.749 800.098 684.029 C 802.568 683.808 803.349 684.349 805.553 685.349 C 812.052 685.098 818.555 684.95 825.059 684.906 C 830.508 691.502 837.774 696.99 844.242 702.627 C 854.959 711.968 865.585 721.594 876.799 730.332 C 884.977 736.705 893.705 742.345 901.985 748.586 C 931.092 770.525 960.398 795.543 993.121 811.961 C 1000.24 823.139 1005.4 839.787 1006.39 853.028 C 988.027 845.363 918.755 801.346 905.545 788.567 z"/>
<path transform="translate(0,0)" fill="rgb(254,254,254)" d="M 905.545 788.567 C 887.548 776.975 824.651 731.137 813.686 716.347 C 810.698 712.316 799.612 687.749 800.098 684.029 C 802.568 683.808 803.349 684.349 805.553 685.349 C 810.774 695.92 815.657 708.265 823.155 717.426 C 835.174 732.111 903.183 781.08 905.545 788.567 z"/>
<path transform="translate(0,0)" fill="rgb(254,254,254)" d="M 579.01 994.324 C 580.833 994.204 581.692 994.256 583.407 994.625 C 585.698 1003.06 583.86 1031.28 584.895 1043.39 C 585.834 1054.38 589.152 1065.17 590.637 1076.12 C 590.053 1077.69 589.424 1079.23 588.75 1080.76 C 584.664 1089.8 574.477 1096.49 565.483 1099.86 C 548.745 1106.12 531.363 1105.25 515.338 1097.69 C 510.157 1073.38 509.826 1046.54 507.653 1021.76 C 506.927 1015.49 506.975 1009 506.754 1002.69 C 523.05 1002.74 538.886 1002.43 554.938 999.355 C 546.734 1014.77 528.929 1056.28 533.489 1073.6 L 534.896 1073.98 C 537.715 1069.79 544.424 1041.21 547.229 1033.3 C 551.59 1021.01 557.102 1009.44 562.878 997.786 C 568.253 996.29 573.505 995.205 579.01 994.324 z"/>
<path transform="translate(0,0)" fill="rgb(254,254,254)" d="M 1199.34 113.934 C 1202.02 114.227 1204.18 114.718 1206.66 115.797 C 1228.69 125.381 1286.51 171.887 1295.69 194.859 C 1304 215.637 1310.99 259.4 1302.09 280.362 C 1301.04 282.344 1300.56 283.763 1298.45 284.736 C 1281.25 271.792 1265.72 256.768 1248.14 244.268 C 1246.81 209.576 1238.53 170.909 1219.15 141.6 C 1213.51 133.085 1204.21 124.791 1200.08 115.668 C 1199.83 115.095 1199.59 114.512 1199.34 113.934 z"/>
<path transform="translate(0,0)" fill="rgb(254,254,254)" d="M 812.969 331.367 C 827.968 330.092 843.106 330.471 856.834 337.261 C 879.296 348.371 899.2 375.043 906.773 398.57 C 917.545 432.034 906.901 466.348 891.375 496.184 C 863.152 495.178 836.426 492.459 808.478 498.855 C 818.364 486.644 827.864 474.43 834.815 460.272 C 855.713 458.905 876.638 459.852 897.452 458.431 C 901.779 441.207 901.753 423.184 896.411 406.197 C 887.707 379.417 868.655 357.231 843.498 344.58 C 825.836 335.505 808.154 332.745 789.058 338.992 C 747.17 352.693 718.747 387.512 699.471 425.323 C 687.977 448.07 679.581 474.674 678.498 500.251 C 681.185 505.531 683.521 510.296 687.818 514.496 C 702.896 529.234 725.851 536.259 746.512 535.951 C 773.543 511.459 791.66 475.084 827.777 462.151 C 818.937 476.466 807.998 489.652 797.43 502.715 C 777.373 508.837 765.729 525.289 749.606 537.599 C 748.807 537.742 748.008 537.888 747.205 538.003 C 727.539 540.809 704.656 530.715 689.106 519.052 C 683.554 514.888 677.354 508.902 676.493 501.644 C 675.554 493.728 677.488 484.94 679.086 477.213 C 685.743 445.026 698.182 413.462 718.521 387.373 C 740.837 358.747 776.721 335.98 812.969 331.367 z"/>
<path transform="translate(0,0)" fill="rgb(254,254,254)" d="M 744.51 600.173 C 763.609 598.346 791.356 604.14 810.292 608.453 C 794.07 629.407 770.107 645.936 749.363 662.118 C 744.246 666.109 737.906 672.289 732.149 675.038 C 729.668 676.224 726.154 673.908 723.836 672.963 C 697.909 662.096 673.093 648.142 655.29 625.709 C 684.913 617.565 714.604 606.838 744.51 600.173 z"/>
<path transform="translate(0,0)" fill="rgb(254,254,254)" d="M 819.686 732.79 C 827.826 737.318 835.532 745.316 842.689 751.333 C 862.127 767.677 884.47 781.194 905.394 795.593 C 930.644 812.969 955.313 830.591 981.545 846.506 C 988.122 850.497 995.76 856.042 1003.05 858.517 C 1005.15 859.231 1007.29 859.024 1009.46 858.824 C 1011.39 858.646 1013.21 858.688 1015.15 858.738 C 1020.49 865.712 1024.47 874.276 1028.84 881.924 L 1056.04 929.272 C 1059.54 935.333 1063.54 944.381 1068.64 949.075 C 1071.9 952.077 1076.36 952.157 1080.55 951.965 C 1084.48 951.785 1088.24 951.85 1092.16 952.022 C 1096.16 943.405 1098.56 932.872 1104.7 925.543 L 1097.99 951.82 C 1095.68 960.807 1094.69 976.353 1087.57 982.603 C 1083.62 986.073 1078.22 985.094 1073.36 984.901 C 1055.92 960.751 1039.23 935.828 1022.51 911.155 C 1014.41 899.193 1006.27 883.612 996.042 873.66 C 983.728 861.68 962.973 851.818 948.153 842.583 C 925.101 828.217 839.676 768.645 827.114 751.975 C 823.302 746.916 821.629 738.808 819.686 732.79 z"/>
<path transform="translate(0,0)" fill="rgb(254,254,254)" d="M 951.466 280.085 C 963.281 281.281 976.975 287.874 985.715 295.855 C 1007.28 315.546 1020.56 358.103 1022.37 386.646 C 1007.68 387.427 992.781 390.718 978.074 392.253 C 974.885 390.152 964.112 355.388 960.495 348.169 C 948.115 323.462 931.674 309.616 905.741 300.988 C 921.099 293.243 934.68 284.619 951.466 280.085 z"/>
<path transform="translate(0,0)" fill="rgb(254,254,254)" d="M 906.475 562.516 C 916.89 569.549 926.856 578.624 936.408 586.823 C 980.87 624.988 1020 668.614 1057.43 713.557 C 1051.26 716.946 1044.77 719.822 1038.4 722.82 L 1030.15 726.83 C 1017.19 713.391 1005.48 698.713 992.811 684.985 C 962.033 651.638 927.639 616.629 893.079 587.333 C 899.403 579.865 902.746 571.446 906.475 562.516 z"/>
<path transform="translate(0,0)" fill="rgb(254,254,254)" d="M 1403.85 1899.03 C 1405.18 1899.01 1406.34 1899.16 1407.62 1899.54 C 1431.05 1906.54 1443.48 1922.83 1454.52 1943.22 C 1441.12 1946.85 1428.08 1951.72 1414.53 1954.9 C 1378.74 1963.33 1340.84 1961.83 1304.77 1956.15 C 1288.82 1952.89 1272.93 1949.8 1257.06 1946.1 C 1257.92 1941.83 1258.44 1937.42 1260.69 1933.64 C 1281.9 1936.54 1304.5 1942.35 1325.86 1942.17 L 1327.29 1942.15 C 1337.59 1936.53 1346.97 1929.05 1356.75 1922.56 C 1371.77 1912.61 1387.03 1905.29 1403.85 1899.03 z"/>
<path transform="translate(0,0)" fill="rgb(254,254,254)" d="M 1131.94 283.052 C 1134.63 286.299 1141.33 319.741 1143.85 326.791 C 1146.07 332.999 1149.07 338.607 1153.27 343.728 C 1163.57 356.273 1191.67 378.907 1206.36 385.751 C 1228.84 377.822 1252.35 371.747 1275.33 365.421 C 1273.62 374.31 1272.73 383.172 1271.88 392.17 L 1257.25 394.727 C 1238.18 398.635 1219.59 404.554 1200.65 409.034 C 1171.73 394.768 1145.57 375.726 1117.55 359.884 C 1112.42 340.141 1111.01 317.107 1109.86 296.746 C 1117.89 293.029 1124.92 288.398 1131.94 283.052 z"/>
<path transform="translate(0,0)" fill="rgb(254,254,254)" d="M 1219.11 1255.14 C 1225.37 1258.87 1237.33 1296.09 1239.72 1304.58 C 1234.14 1306.48 1228.68 1308.41 1223.27 1310.77 C 1221.8 1330.08 1222.15 1349.69 1220.04 1368.92 C 1217.77 1389.68 1203.18 1400.35 1188.06 1412.59 C 1186.58 1413.38 1185.04 1414.01 1183.51 1414.68 L 1182.57 1413.7 C 1194.6 1373.35 1190.5 1324.07 1176.92 1284.57 C 1189.61 1272.84 1201.92 1259.67 1219.11 1255.14 z"/>
<path transform="translate(0,0)" fill="rgb(80,79,80)" d="M 1127.37 867.637 C 1127.96 864.449 1128.93 862.708 1130.8 860.083 C 1167.64 899.851 1245.45 984.452 1259.38 1034.22 C 1250.87 1027.54 1241.18 1023.01 1233.31 1015.49 C 1241.15 1018.21 1247.55 1023.11 1254.47 1027.56 C 1236.98 1003.89 1212.53 988.161 1189.65 970.279 C 1172.4 956.799 1155.45 941.862 1140.89 925.499 C 1136.19 922.11 1131.29 916.779 1127.25 912.543 C 1123.13 908.226 1119.03 904.628 1119.2 898.373 L 1120.01 891.892 C 1118.43 884.39 1124.57 874.552 1127.37 867.637 z"/>
<path transform="translate(0,0)" fill="rgb(254,254,254)" d="M 1127.37 867.637 C 1127.96 864.449 1128.93 862.708 1130.8 860.083 C 1167.64 899.851 1245.45 984.452 1259.38 1034.22 C 1250.87 1027.54 1241.18 1023.01 1233.31 1015.49 C 1241.15 1018.21 1247.55 1023.11 1254.47 1027.56 C 1236.98 1003.89 1212.53 988.161 1189.65 970.279 C 1172.4 956.799 1155.45 941.862 1140.89 925.499 C 1150.45 930.643 1160.09 940.93 1168.43 948.082 C 1190.63 967.108 1212.87 987.739 1237.48 1003.58 C 1220.85 967.441 1185.82 932.022 1159.37 902.183 C 1149.2 890.71 1139.07 877.509 1127.37 867.637 z"/>
<path transform="translate(0,0)" fill="rgb(254,254,254)" d="M 1120.01 891.892 C 1138.92 906.327 1156.31 922.379 1173.94 938.323 C 1191.76 954.445 1211.27 970.553 1225.3 990.236 C 1199.25 972.649 1174.79 948.53 1151.85 927.01 C 1141.36 917.164 1131.51 905.992 1119.2 898.373 L 1120.01 891.892 z"/>
<path transform="translate(0,0)" fill="rgb(254,254,254)" d="M 1099.52 723.931 C 1110.37 725.884 1121.16 728.194 1132.04 729.959 C 1142.31 731.623 1152.92 732.656 1162.95 735.448 C 1156.92 756.473 1149.61 776.88 1142.09 797.398 L 1127.24 795.234 C 1116.46 794.269 1105.67 793.138 1094.84 792.873 C 1091.19 786.526 1086.13 780.638 1081.8 774.71 C 1074.58 764.909 1067.69 754.876 1061.12 744.629 C 1073.71 737.375 1086.75 730.863 1099.52 723.931 z"/>
<path transform="translate(0,0)" fill="rgb(254,254,254)" d="M 873.786 605.855 C 876.735 606.866 994.936 727.123 1005.96 739.612 C 1000.68 741.984 995.829 744.457 990.943 747.566 C 978.836 732.412 965.298 718.071 951.646 704.311 C 932.23 684.099 913.841 657.61 890.186 642.243 C 866.778 645.702 842.646 660.228 820.123 661.288 C 809.243 661.8 802.466 657.901 794.657 650.989 C 799.427 647.764 804.514 645.01 809.183 641.653 C 815.367 637.207 821.328 630.946 827.96 627.339 C 843.265 619.014 858.134 616.541 873.786 605.855 z"/>
<path transform="translate(0,0)" fill="rgb(254,254,254)" d="M 623.147 739.446 C 629.688 743.702 636.017 752.327 641.894 757.932 C 650.677 766.309 660.138 773.859 669.801 781.183 C 664.366 808.673 655.695 835.214 645.454 861.25 C 642.347 868.481 638.811 875.442 635.208 882.436 C 629.373 868.887 621.676 854.37 618.83 839.901 C 616.413 827.616 618.581 813.155 619.409 800.694 C 620.763 780.318 622.687 759.862 623.147 739.446 z"/>
<path transform="translate(0,0)" fill="rgb(254,254,254)" d="M 794.51 548.242 C 808.675 547.398 823.726 549.926 837.805 551.407 C 838.135 559.073 839.034 566.711 839.819 574.341 C 833.856 584.157 825.962 592.892 818.662 601.726 C 805.241 598.875 791.756 596.329 778.219 594.089 C 760.449 591.58 745.039 588.739 727.852 595.697 C 734.301 584.213 741.798 573.299 749 562.278 C 769.483 559.581 776.529 553.415 794.51 548.242 z"/>
<path transform="translate(0,0)" fill="rgb(254,254,254)" d="M 1245.95 1317.47 L 1247.86 1317.64 C 1250.15 1325.29 1247.75 1340.7 1247.67 1349.33 C 1247.55 1362.34 1249.01 1375.34 1248.72 1388.32 C 1248.36 1405.1 1242.8 1460.8 1245.99 1472.89 C 1249.2 1485.03 1258.13 1497.84 1263.98 1509.18 C 1278.73 1508.58 1293.38 1504.06 1307.85 1501.31 C 1308.24 1504.3 1309.28 1509.05 1307.95 1511.86 C 1305.8 1516.4 1296.89 1517.71 1292.48 1518.97 C 1283.41 1520.98 1274.4 1522.11 1265.18 1523.16 C 1262.33 1517.31 1258.39 1511.77 1255.07 1506.15 C 1243.08 1485.83 1229.18 1465.57 1218.68 1444.49 C 1231.84 1398.9 1231.39 1365.14 1234.88 1318.82 L 1245.95 1317.47 z"/>
<path transform="translate(0,0)" fill="rgb(49,49,50)" d="M 1241.1 1321.64 L 1242.26 1322.71 C 1244.42 1327.99 1241.87 1367.31 1240.4 1374.41 C 1240.2 1374.09 1239.99 1373.77 1239.81 1373.43 C 1235.97 1365.97 1238.6 1330.28 1241.1 1321.64 z"/>
<path transform="translate(0,0)" fill="rgb(254,254,254)" d="M 882.611 884.753 C 888.971 888.473 896.482 891.327 903.179 894.503 C 924.878 904.793 947.648 914.367 968.145 926.923 C 967.533 932.346 967.196 937.8 966.791 943.242 C 955.683 940.331 944.606 937.934 933.237 936.297 C 904.916 932.546 876.958 937.907 849.804 945.656 C 859.283 924.287 869.746 904.304 882.611 884.753 z"/>
<path transform="translate(0,0)" fill="rgb(254,254,254)" d="M 1363.52 1857.86 C 1369.69 1858.65 1384.71 1876.88 1389.73 1881.73 C 1373.75 1889.5 1357.99 1897.46 1343.57 1907.94 C 1333.71 1915.11 1324.94 1923.98 1314.59 1930.42 C 1308.95 1930.25 1303.59 1929.63 1298.02 1928.76 C 1288.69 1927.1 1279.39 1925.32 1270.11 1923.43 C 1280.32 1916.55 1289.26 1908.12 1298.48 1900.02 C 1318.78 1882.21 1338.3 1867.92 1363.52 1857.86 z"/>
<path transform="translate(0,0)" fill="rgb(254,254,254)" d="M 1211.58 1406.91 C 1211.88 1412.07 1197.91 1429.54 1194.41 1434.74 C 1196.57 1448.13 1200.03 1459.7 1209 1470.08 C 1190.48 1470.33 1147.96 1475 1132.39 1470.42 C 1128.37 1467.53 1120.41 1435.4 1119 1428.8 C 1124.48 1429.25 1129.98 1429.58 1135.48 1429.8 C 1155.1 1430.54 1179.39 1430.54 1196.53 1419.71 C 1201.95 1416.28 1206.85 1411.26 1211.58 1406.91 z"/>
<path transform="translate(0,0)" fill="rgb(60,59,60)" d="M 1148.83 1437.29 C 1152.14 1436.76 1156.08 1435.67 1159.34 1436.51 C 1160.94 1438.61 1160.55 1441.04 1160.57 1443.56 C 1160.6 1451.09 1167.51 1461.95 1164.21 1468.42 L 1162.29 1467.95 C 1159.07 1464.16 1156.36 1447.29 1154.76 1441.35 C 1154.94 1447.33 1155.53 1453.23 1156.12 1459.18 C 1156.07 1462.24 1156.35 1463.43 1154.68 1466.07 C 1152.45 1466.07 1152.32 1466.05 1150.89 1464.39 C 1149.46 1462.73 1148.88 1460.22 1148.23 1458.16 C 1145.88 1453.31 1139.67 1443.38 1140.4 1438.17 C 1142.52 1436.64 1142.31 1436.68 1144.89 1437.09 C 1148.62 1441.76 1150.74 1452.42 1153.17 1458.34 C 1152.08 1451.18 1150.68 1444.29 1148.83 1437.29 z"/>
<path transform="translate(0,0)" fill="rgb(49,49,50)" d="M 1148.23 1458.16 C 1151.15 1457.29 1153.28 1458.29 1156.12 1459.18 C 1156.07 1462.24 1156.35 1463.43 1154.68 1466.07 C 1152.45 1466.07 1152.32 1466.05 1150.89 1464.39 C 1149.46 1462.73 1148.88 1460.22 1148.23 1458.16 z"/>
<path transform="translate(0,0)" fill="rgb(80,79,80)" d="M 1189.06 1447.84 C 1188.03 1444.08 1183.96 1434.4 1185.37 1431.59 C 1187.98 1430.7 1188.14 1430.3 1190.63 1431.35 C 1192.55 1435.59 1191.83 1440.01 1192.88 1444.45 C 1194.22 1450.16 1197.43 1455.25 1197.36 1461.2 C 1196.78 1462.4 1196.63 1463.66 1195.26 1464.12 C 1192.95 1464.91 1190.16 1464.16 1187.8 1463.8 C 1186.91 1463.67 1185.92 1463.21 1185.07 1462.91 C 1184.86 1462.53 1176.41 1435.45 1176.33 1434.91 L 1178.5 1432.99 L 1180.62 1433.22 C 1183.42 1436.31 1183.93 1440.24 1185.54 1443.96 C 1186.65 1446.54 1186.55 1446.84 1189.06 1447.84 z"/>
<path transform="translate(0,0)" fill="rgb(60,59,60)" d="M 1189.06 1447.84 C 1188.03 1444.08 1183.96 1434.4 1185.37 1431.59 C 1187.98 1430.7 1188.14 1430.3 1190.63 1431.35 C 1192.55 1435.59 1191.83 1440.01 1192.88 1444.45 C 1194.22 1450.16 1197.43 1455.25 1197.36 1461.2 C 1196.78 1462.4 1196.63 1463.66 1195.26 1464.12 C 1192.95 1464.91 1190.16 1464.16 1187.8 1463.8 C 1188.79 1462.62 1190.19 1461.59 1191.35 1460.56 C 1191.95 1458.33 1191.8 1457.28 1191.03 1455.18 C 1190.22 1453.01 1189.68 1450.98 1189.23 1448.71 L 1189.06 1447.84 z"/>
<path transform="translate(0,0)" fill="rgb(60,59,60)" d="M 1164.03 1434.99 C 1166.2 1434.85 1167.74 1434.76 1169.8 1435.49 C 1176.38 1442.22 1178.3 1453.14 1180.16 1462.07 L 1179.27 1463.34 C 1178.15 1463.24 1176.7 1463 1175.56 1463.12 C 1172.99 1463.39 1171.8 1463.93 1169.25 1463.12 C 1168.44 1461.33 1168.4 1461.74 1168.29 1460.19 C 1168.07 1457.05 1168.31 1453.67 1167.68 1450.57 C 1166.69 1445.73 1162.3 1439.91 1164.03 1434.99 z"/>
<path transform="translate(0,0)" fill="rgb(80,79,80)" d="M 1123.39 1435.35 C 1126.42 1436 1127.34 1435.82 1129.11 1438.55 C 1132.03 1443.06 1140.85 1462.08 1139.26 1467.17 L 1137.23 1465.1 L 1135.62 1466.29 L 1134.4 1465.55 C 1130.07 1456.7 1124.49 1445.17 1123.39 1435.35 z"/>
<path transform="translate(0,0)" fill="rgb(60,59,60)" d="M 1131.35 1435.03 L 1134.99 1435.71 C 1140.16 1440.42 1145.95 1461.12 1146.32 1468.3 C 1138.52 1461.68 1132.68 1444.87 1131.35 1435.03 z"/>
<path transform="translate(0,0)" fill="rgb(254,254,254)" d="M 840.606 863.2 C 852.736 868.43 864.605 875.314 876.398 881.315 C 862.143 902.476 852.316 924.892 842.194 948.139 L 824.481 955.99 C 815.778 959.684 809.111 963.822 803.001 971.091 C 806.112 938.514 827.502 894.012 840.606 863.2 z"/>
<path transform="translate(0,0)" fill="rgb(254,254,254)" d="M 377.804 1855.38 C 383.929 1856.73 386.857 1868.56 389.369 1874.01 C 400.524 1898.2 415.86 1921.99 435.977 1939.75 C 443.22 1946.15 451.793 1952.07 461.036 1955.11 C 481.964 1962.01 535.386 1957.34 558.629 1955.98 C 551.004 1937.5 525.536 1914.03 510.089 1900.98 C 489.595 1901.91 442.594 1912.81 427.083 1909.93 C 419.581 1908.54 415.284 1902.5 411.291 1896.56 C 406.853 1889.96 391.539 1864.48 392.938 1857.12 C 395.095 1856.06 395.626 1856.64 397.898 1857.12 L 399.54 1859.63 C 406.272 1874.89 414.495 1889.35 424.862 1902.42 C 445.343 1901.68 500.34 1888.18 515.176 1898.16 C 524.766 1904.61 554.2 1935.86 559.726 1945.88 C 563.072 1951.95 564.17 1958.2 565.446 1964.92 C 541.561 1965.89 474.177 1969.56 454.835 1961.91 C 428.678 1951.55 406.114 1918.36 394.075 1894.28 C 387.836 1881.8 383.091 1868.31 377.804 1855.38 z"/>
<path transform="translate(0,0)" fill="rgb(254,254,254)" d="M 913.416 969.514 L 914.495 970.036 C 914.492 970.045 872.399 1026.57 867.577 1033.92 C 854.657 1037.98 843.795 1042.68 832.666 1050.47 L 831.354 1049.95 C 830.661 1033.4 831.771 1015.5 834.261 999.109 C 853.493 980.52 887.702 972.301 913.416 969.514 z"/>
<path transform="translate(0,0)" fill="rgb(254,254,254)" d="M 958.566 466.865 C 1003.39 495.542 1045.84 529.237 1087.08 562.815 C 1092.4 586.582 1099.94 610.068 1106.68 633.472 C 1112.1 652.275 1116.8 671.838 1123.58 690.154 C 1142.4 695.826 1162.32 699.627 1181.46 704.282 C 1197.91 688.021 1210.73 671.839 1214.87 648.299 C 1215.21 646.334 1215.42 644.986 1216.41 643.201 L 1215.99 646.003 L 1216.17 645.75 C 1211.67 675.52 1204.96 686.435 1183.72 707.824 C 1176.01 706.418 1168.23 705.534 1160.55 703.976 C 1145.6 700.942 1129.85 696.431 1114.54 696.091 C 1074.02 715.201 1037.61 741.315 993.473 751.941 C 1013.76 740.992 1035.15 731.657 1055.71 721.142 C 1076.14 710.692 1096.58 698.281 1117.8 689.726 C 1114.79 674.293 1090.01 580.121 1083.63 570.632 C 1074.18 556.559 1023.39 519.875 1006.98 508.317 C 991.343 497.301 971.99 487.582 958.105 474.523 C 957.173 471.395 957.831 469.997 958.566 466.865 z"/>
<path transform="translate(0,0)" fill="rgb(98,87,89)" d="M 1143.7 264.57 C 1154.02 273.402 1175.17 286.625 1182.21 296.148 C 1185.16 300.145 1186.7 304.733 1187.49 309.598 C 1188.79 317.639 1191.18 357.29 1187.53 362.32 C 1176.84 354.235 1161.72 344.906 1155.81 332.39 C 1149.78 319.636 1141.67 287.784 1141.62 273.839 C 1141.61 270.568 1142.6 267.613 1143.7 264.57 z"/>
<path transform="translate(0,0)" fill="rgb(254,254,254)" d="M 847.669 831.336 C 886.595 860.274 932.572 879.919 973.928 905.127 C 971.855 909.117 970.652 913.337 969.312 917.611 C 943.833 905.439 918.42 893.128 893.075 880.679 C 876.273 872.483 858.834 864.772 842.673 855.371 C 844.229 847.337 845.895 839.325 847.669 831.336 z"/>
<path transform="translate(0,0)" fill="rgb(254,254,254)" d="M 863.229 1040.94 L 864.674 1042.01 C 865.381 1046.76 863.995 1051.88 863.205 1056.59 C 858.792 1058.99 853.224 1061.38 849.515 1064.76 C 847.87 1066.25 847.027 1067.44 847.041 1069.76 C 847.093 1078.1 851.682 1089.09 854.062 1097.23 C 869.313 1149.45 890.976 1181.68 930.472 1218.25 C 927.112 1216.5 923.873 1214.53 920.612 1212.6 C 914.435 1208.58 908.266 1204.14 902.502 1199.55 C 871.591 1174.9 847.388 1136.2 837.399 1098.04 C 833.895 1084.65 832.465 1070.97 830.855 1057.26 C 841.461 1051.31 851.892 1045.42 863.229 1040.94 z"/>
<path transform="translate(0,0)" fill="rgb(254,254,254)" d="M 594.144 703.541 C 601.991 708.89 611.271 720.746 617.041 728.481 C 616.979 753.612 613.983 779.33 612.419 804.441 C 611.666 816.534 609.64 829.917 612.179 841.835 C 615.908 859.331 624.893 876.235 631.071 893.022 C 630.261 894.947 629.209 896.556 628.081 898.305 L 626.305 898.553 C 621.85 893.774 618.863 884.09 616.211 877.984 C 610.983 865.949 604.637 853.321 601.709 840.493 C 597.797 823.36 599.447 797.506 598.996 779.496 C 598.366 754.302 596.695 728.621 594.144 703.541 z"/>
<path transform="translate(0,0)" fill="rgb(254,254,254)" d="M 1211.01 1910.36 C 1217.51 1913.41 1223.81 1915.99 1230.69 1918.05 L 1234.27 1928.21 C 1240.68 1929.31 1247.26 1929.74 1253.74 1930.36 C 1252.54 1934.81 1250.96 1939.69 1250.56 1944.28 C 1250.32 1946.92 1250.75 1948.74 1252.64 1950.65 C 1257.21 1955.26 1268.34 1956.85 1274.65 1958.34 C 1316.64 1968.28 1361.88 1972.5 1404.7 1965.14 C 1418.84 1962.71 1450.68 1950.88 1460.93 1950.6 C 1463.59 1950.53 1465.46 1951.04 1467.32 1952.96 C 1464.51 1956.35 1458.78 1958.19 1454.8 1960.05 C 1438.64 1966.21 1420.99 1970.69 1403.97 1973.63 C 1352.58 1982.52 1304.33 1974.25 1256.04 1956.32 C 1248.7 1953.59 1237.46 1950.93 1231.21 1946.52 C 1235.3 1946.82 1243.89 1948.4 1247.51 1946.67 C 1239.44 1939.88 1217.72 1939.55 1213.11 1933.18 C 1208.9 1927.35 1210.71 1917.12 1211.01 1910.36 z"/>
<path transform="translate(0,0)" fill="rgb(254,254,254)" d="M 643.073 602.57 C 645.902 609.41 644.171 617.553 647.165 624.231 C 659.624 652.025 702.125 671.597 728.906 681.893 C 723.13 686.138 717.131 690.123 711.232 694.198 L 708.503 695.061 C 669.943 680.656 651.637 661.662 628.421 628.146 L 630.808 624.805 L 629.936 623.957 L 630.873 623.899 C 635.101 616.883 639.169 609.772 643.073 602.57 z"/>
<path transform="translate(0,0)" fill="rgb(254,254,254)" d="M 1077.68 86.423 C 1106.28 83.3811 1156.54 95.4163 1182.03 109.886 C 1172.07 122.716 1169.17 133.695 1170.39 149.694 L 1170.37 150.034 L 1169.7 150.112 C 1169.05 149.23 1168.39 148.355 1167.72 147.485 C 1149.83 124.143 1120.87 102.667 1092.64 93.8988 C 1082.7 90.8112 1072.67 89.4645 1062.39 88.1364 C 1067.39 87.0967 1072.6 86.8769 1077.68 86.423 z"/>
<path transform="translate(0,0)" fill="rgb(254,254,254)" d="M 886.89 596.541 C 899.667 601.876 1003.23 710.585 1022.92 729.645 C 1021.81 732.25 1019.08 733.154 1016.69 734.599 L 1013.45 735.674 C 1008.82 734.854 980.21 702.009 974.778 696.447 C 954.668 675.856 934.137 655.652 913.79 635.294 C 903.343 624.842 891.281 614.379 882.482 602.538 C 882.972 599.581 884.781 598.6 886.89 596.541 z"/>
<path transform="translate(0,0)" fill="rgb(254,254,254)" d="M 1020.12 922.61 C 1038.82 940.88 1052.1 974.109 1071.76 993.463 C 1077.02 993.135 1084.42 993.253 1089.1 990.683 C 1096.23 986.777 1097.66 978.155 1099.87 971.029 C 1098.21 984.113 1096.48 997.046 1094.3 1010.06 C 1093.07 1017.16 1092.41 1024.42 1091.55 1031.57 C 1064.24 1001.7 1039.09 969.985 1012 939.946 C 1014.4 934.03 1017.31 928.341 1020.12 922.61 z"/>
<path transform="translate(0,0)" fill="rgb(254,254,254)" d="M 1186.26 1814.92 C 1185.16 1813.36 1184.81 1812.23 1184.43 1810.37 L 1185.83 1809.39 C 1186.22 1809.48 1186.62 1809.54 1187 1809.66 C 1190.59 1810.84 1192.61 1814.23 1194.39 1817.33 C 1198.93 1825.27 1202.23 1834.64 1206.02 1843.04 C 1217.01 1867.41 1227.31 1892.46 1240.4 1915.81 L 1263.35 1916.06 C 1287.97 1893.39 1302.28 1858.65 1331.99 1841.88 C 1342.16 1836.15 1353.18 1833.42 1363.78 1828.86 L 1365.44 1828.14 C 1365.46 1829.92 1365.83 1831.72 1366.13 1833.48 C 1366.37 1834.83 1366.94 1836.72 1366.79 1838.09 C 1366.56 1840.29 1365.93 1841.16 1364.18 1842.39 C 1358.59 1846.35 1350.93 1848.89 1344.74 1851.87 C 1335.04 1856.54 1326.33 1862.08 1317.9 1868.72 C 1305.61 1878.41 1294.85 1889.43 1284.11 1900.75 C 1277.99 1907.2 1271.99 1914.62 1264.9 1920.02 C 1258.6 1921.07 1246.07 1922.42 1240.05 1920.45 C 1239.65 1920.32 1238.56 1919.8 1238.25 1919.35 C 1233.99 1913.33 1230.82 1904.12 1227.61 1897.34 C 1215.94 1872.63 1202.5 1838.15 1187.13 1816.16 L 1186.26 1814.92 z"/>
<path transform="translate(0,0)" fill="rgb(254,254,254)" d="M 980.13 416.434 C 991.947 422.658 1003.51 429.344 1014.81 436.478 C 1010.66 451.429 1004.26 466.252 998.79 480.792 L 997.267 483.494 C 990.054 482.654 973.862 467.937 967.94 462.906 C 973.054 447.629 976.568 432.129 980.13 416.434 z"/>
<path transform="translate(0,0)" fill="rgb(254,254,254)" d="M 868.436 316.13 C 881.938 315.354 895.224 316.716 907.514 322.727 C 932.804 335.096 942.387 367.917 950.83 392.814 C 947.138 392.969 943.471 393.314 939.791 393.649 C 935.399 383.324 929.056 373.39 922.377 364.407 C 904.916 340.925 884.553 326.576 855.462 322.231 C 859.748 319.691 863.629 317.618 868.436 316.13 z"/>
<path transform="translate(0,0)" fill="rgb(254,254,254)" d="M 1355.52 1078.34 C 1361.23 1087.06 1365.12 1095.56 1368.57 1105.37 C 1352.41 1116.05 1334.96 1115.63 1317.33 1122.03 C 1315.1 1121.25 1312.88 1120.44 1310.62 1119.72 C 1305.34 1118.02 1302.04 1115.15 1299.54 1110.22 C 1298.36 1107.86 1297.22 1105.48 1296.14 1103.08 C 1301.29 1107.28 1307.4 1115.96 1313.75 1116.7 C 1315.14 1115.38 1315.63 1114.71 1316.08 1112.84 C 1315.75 1111.47 1315.43 1110.58 1314.7 1109.34 C 1314.01 1108.2 1313.56 1107.26 1313.11 1106.01 L 1314.1 1106.8 C 1319.66 1093.5 1342.99 1096.47 1350.33 1088.93 C 1348.49 1088.23 1347.25 1087.7 1345.23 1087.91 C 1343.03 1088.15 1340.96 1088.27 1338.75 1088.31 C 1320.3 1092.07 1318.03 1092.72 1304.39 1105.32 C 1301.93 1103.66 1300.65 1101.86 1300.17 1098.85 C 1299.79 1096.44 1300.14 1094.96 1301.29 1092.78 C 1313.73 1084.61 1340.56 1081.12 1355.52 1078.34 z"/>
<path transform="translate(0,0)" fill="rgb(80,79,80)" d="M 1338.75 1088.31 C 1341.57 1087.14 1345.4 1084.98 1348.45 1086.03 C 1353.61 1087.81 1360.44 1093.25 1362.48 1098.47 C 1363.38 1100.77 1363.26 1101.64 1362.86 1103.99 C 1361.72 1104.98 1361.37 1105.61 1359.85 1105.86 L 1358.27 1102.83 C 1355.77 1102.23 1356.19 1102.42 1354.06 1103.4 C 1344.16 1107.16 1332.04 1112.87 1321.43 1112.6 C 1319.61 1112.55 1317.88 1112.52 1316.08 1112.84 C 1315.75 1111.47 1315.43 1110.58 1314.7 1109.34 C 1314.01 1108.2 1313.56 1107.26 1313.11 1106.01 L 1314.1 1106.8 C 1319.66 1093.5 1342.99 1096.47 1350.33 1088.93 C 1348.49 1088.23 1347.25 1087.7 1345.23 1087.91 C 1343.03 1088.15 1340.96 1088.27 1338.75 1088.31 z"/>
<path transform="translate(0,0)" fill="rgb(49,49,50)" d="M 1314.1 1106.8 C 1315.96 1107.21 1316.61 1107.25 1318.4 1107.04 C 1319.74 1105.41 1321.12 1103.6 1322.7 1102.21 C 1329.79 1095.99 1329.38 1104.79 1334.98 1104.42 C 1340.76 1104.04 1345.12 1100.73 1351.5 1101.28 C 1352.93 1101.4 1353.18 1102.34 1354.06 1103.4 C 1344.16 1107.16 1332.04 1112.87 1321.43 1112.6 C 1319.61 1112.55 1317.88 1112.52 1316.08 1112.84 C 1315.75 1111.47 1315.43 1110.58 1314.7 1109.34 C 1314.01 1108.2 1313.56 1107.26 1313.11 1106.01 L 1314.1 1106.8 z"/>
<path transform="translate(0,0)" fill="rgb(254,254,254)" d="M 710.181 551.557 C 723.244 556.972 724.824 561.105 740.94 562.381 C 732.957 574.026 725.258 585.72 717.972 597.817 L 709.249 599.695 C 701.38 601.797 693.645 604.489 685.899 606.999 C 684.861 600.54 683.774 594.089 682.636 587.646 C 692.067 575.796 700.488 563.238 710.181 551.557 z"/>
<path transform="translate(0,0)" fill="rgb(254,254,254)" d="M 988.806 398.11 C 1016.26 400.073 1090.56 442.573 1114.02 461.184 C 1112.67 466.647 1111.69 471.992 1110.92 477.563 L 1111.21 478.635 C 1096.96 464.156 1079.21 453.992 1062.2 443.134 C 1038.02 427.664 1013.55 412.653 988.806 398.11 z"/>
<path transform="translate(0,0)" fill="rgb(254,254,254)" d="M 912.667 947.435 C 919.945 946.661 927.352 947.674 934.581 948.471 C 928.005 952.572 922.291 957.286 916.43 962.343 C 893.275 964.952 873.7 970.343 852.512 979.859 L 836.489 988.628 C 837.644 981.862 838.945 975.122 840.392 968.412 C 857.197 954.051 891.314 949.187 912.667 947.435 z"/>
<path transform="translate(0,0)" fill="rgb(254,254,254)" d="M 965.764 398.968 C 968.776 398.809 971.563 398.749 974.43 399.815 C 990.561 405.815 1006.86 417.714 1021.27 427.105 C 1044.14 442.092 1066.87 457.28 1089.48 472.667 C 1102.36 481.381 1116.35 492.688 1131.08 497.898 C 1136.94 499.971 1147.21 502.729 1153 498.947 C 1159.74 494.542 1163.66 478.498 1166.26 470.885 C 1172.13 474.392 1175.84 477.636 1179.96 483.051 L 1179.48 484.266 C 1177.7 483.499 1176.05 482.94 1174.62 481.596 C 1172.77 479.851 1170.77 478.446 1168.71 476.958 C 1163.92 484.98 1160.13 493.769 1156.07 502.188 C 1151.44 503.016 1146.68 503.48 1142.01 504.105 C 1139.18 504.334 1136.34 504.724 1133.65 503.615 C 1118.22 497.266 1100.97 484.365 1086.98 475.198 C 1059.13 456.572 1030.89 438.523 1002.29 421.064 C 991.411 414.566 980.565 407.616 969.075 402.246 C 968.569 414.907 960.441 454.415 952.567 463.783 L 951.508 463.284 C 950.813 461.434 950.643 459.458 950.899 457.494 C 951.836 450.323 955.555 442.701 957.775 435.752 C 961.346 424.579 964.043 412.495 965.531 400.858 L 965.764 398.968 z"/>
<path transform="translate(0,0)" fill="rgb(254,254,254)" d="M 1024.73 126.725 C 1030.56 132.958 1036.09 152.628 1038.94 161.04 C 1023.22 172.209 1014.5 186.662 1008.51 204.731 L 1007.52 206.985 C 1003.18 201.612 1000.42 193.28 998.197 186.743 C 1006.37 166.34 1017.77 147.668 1024.73 126.725 z"/>
<path transform="translate(0,0)" fill="rgb(250,87,91)" d="M 1213.07 257.18 C 1223.55 255.26 1234.1 253.782 1244.71 252.753 C 1261.76 264.659 1280.38 276.837 1295.24 291.451 C 1282.48 292.099 1261.88 288.153 1250.61 282.358 C 1244.59 276.154 1221.47 261.76 1213.07 257.18 z"/>
<path transform="translate(0,0)" fill="rgb(254,254,254)" d="M 992.461 276.767 C 994.745 277.597 996.721 278.896 998.535 280.502 C 1015.33 295.371 1037.66 345.595 1042.6 367.413 C 1043.85 372.915 1043.48 379.008 1043.89 384.631 C 1044.07 387.051 1043.78 391.17 1045.59 392.716 C 1047.84 391.633 1049.35 391.008 1051.88 390.754 C 1061.98 395.475 1118.48 426.078 1123.62 432.428 C 1124.16 433.098 1124.22 434.041 1124.53 434.847 C 1123.47 436.832 1123.89 437.044 1121.61 437.764 L 1113.5 433.006 C 1102.1 426.332 1057.8 397.412 1048.13 396.386 C 1043.7 395.915 1039.36 403.58 1034.29 404.16 C 1031.38 404.493 1029.69 403.31 1027.45 401.756 L 1027.17 400.156 C 1029.57 398.517 1031.59 398.274 1034.39 397.89 L 1035.52 397.743 C 1038.26 394.842 1037.98 390.294 1038.07 386.443 C 1038.24 379.592 1038.03 372.043 1036.58 365.328 C 1031.31 340.924 1009.8 294.916 992.461 276.767 z"/>
<path transform="translate(0,0)" fill="rgb(254,254,254)" d="M 1036.32 1320.85 C 1048.78 1321.48 1128.77 1328.09 1134.86 1330.99 C 1136.07 1334.48 1134.72 1338.21 1133.91 1341.7 C 1133.69 1341.87 1133.49 1342.07 1133.25 1342.21 C 1126.56 1346.03 1058.57 1334.58 1046.72 1332.6 C 1043.13 1328.81 1039.76 1324.78 1036.32 1320.85 z"/>
<path transform="translate(0,0)" fill="rgb(254,254,254)" d="M 670.222 554.621 C 676.1 571.027 677.303 592.061 679.931 609.405 L 657.217 616.074 C 655.821 616.576 654.562 616.679 653.095 616.849 C 652.859 616.638 652.592 616.456 652.387 616.215 C 648.452 611.589 649.143 598.357 648.923 592.213 C 655.677 579.591 662.209 566.49 670.222 554.621 z"/>
<path transform="translate(0,0)" fill="rgb(254,254,254)" d="M 1129.49 1494.85 C 1131.83 1497.87 1132.28 1509.24 1133.15 1513.68 C 1149.65 1530.43 1185.92 1544.4 1207.51 1554.16 C 1224.56 1577.37 1247.57 1607.29 1261.1 1632.11 C 1273.44 1626.75 1289.91 1622.13 1303.34 1620.51 C 1305.84 1622.45 1306.25 1624.51 1307.46 1627.39 C 1292.25 1630.2 1277.38 1635.36 1262.61 1639.9 C 1249.29 1624.71 1234 1597.77 1222.19 1579.83 C 1217.64 1572.93 1213.07 1564.36 1206.75 1558.94 C 1198.43 1551.8 1185.4 1547.96 1175.44 1543.47 C 1157.97 1535.59 1141.37 1526.68 1126.6 1514.36 L 1129.49 1494.85 z"/>
<path transform="translate(0,0)" fill="rgb(254,254,254)" d="M 1135.76 438.49 C 1136.71 439.025 1137.47 439.668 1138.2 440.474 C 1144.3 447.149 1155.16 465.136 1154.45 474.264 C 1154.03 479.572 1149.69 483.237 1149.64 489.421 C 1149.64 489.754 1149.65 490.087 1149.66 490.419 L 1148.54 490.764 L 1147.79 488.411 C 1146.31 489.43 1144.86 490.439 1143.23 491.205 C 1140.02 492.711 1136.92 493.079 1133.57 491.754 C 1126.45 488.935 1123.76 482.983 1121.17 476.346 C 1121.05 473.546 1120.8 472.743 1122.16 470.343 C 1130.54 467.813 1137.39 474.252 1143.66 473.388 C 1143.84 473.058 1144.06 472.747 1144.2 472.398 C 1145.71 468.682 1143.55 463.058 1141.97 459.666 C 1141 457.6 1140.18 455.801 1138 454.953 C 1136.44 458.458 1136.93 462.678 1136.96 466.45 L 1122.11 464.639 C 1126.58 455.881 1131.13 447.165 1135.76 438.49 z"/>
<path transform="translate(0,0)" fill="rgb(254,254,254)" d="M 876.705 306.434 C 894.068 304.088 913.68 308.751 927.982 318.9 C 946.577 332.095 955.507 353.17 963.641 373.644 C 965.955 379.466 968.935 385.164 970.018 391.369 C 967.649 393.384 965.043 393.15 962.017 393.567 C 958.989 391.837 946.043 355.309 942.54 348.439 C 938.769 341.045 934.254 333.914 928.338 328.04 C 913.696 313.503 891.791 309.024 871.901 309.138 L 871.886 308.394 L 876.705 306.434 z"/>
<path transform="translate(0,0)" fill="rgb(254,254,254)" d="M 816.454 969.53 C 819.139 971.952 816.634 978.22 815.96 981.325 C 804.828 1032.63 804.718 1080.04 827.966 1128.13 L 827.026 1128.26 C 812.659 1107.24 804.837 1090.24 802.581 1064.62 C 800.645 1042.65 802.061 986.832 816.454 969.53 z"/>
<path transform="translate(0,0)" fill="rgb(80,79,80)" d="M 1314.15 1081.51 C 1313.68 1081.58 1313.2 1081.76 1312.72 1081.72 C 1309.82 1081.45 1308.56 1078.7 1307.01 1076.61 L 1304.93 1077.52 C 1303.91 1079.44 1303.09 1080.79 1301.49 1082.29 C 1298.85 1081.77 1295.27 1080.76 1293.74 1078.51 C 1308.37 1072.68 1311.19 1069.21 1317.92 1055.29 C 1316.84 1052.43 1315.7 1049.6 1314.49 1046.8 C 1313.13 1043.54 1309.79 1042.99 1308.23 1040.07 C 1307.6 1038.89 1307.97 1038.93 1308.37 1037.38 C 1310.55 1036.43 1309.69 1036.59 1311.94 1036.42 C 1312.45 1036.38 1312.96 1036.37 1313.47 1036.34 L 1313.37 1032.9 L 1314.9 1033.31 C 1324.12 1045.55 1329.54 1060.42 1339.23 1072.24 C 1339.93 1073.1 1340.62 1073.96 1341.34 1074.81 C 1338.85 1076.69 1333.11 1076.38 1329.92 1076.76 C 1324.12 1077.43 1319.5 1079.23 1314.15 1081.51 z"/>
<path transform="translate(0,0)" fill="rgb(254,254,254)" d="M 1314.9 1033.31 C 1324.12 1045.55 1329.54 1060.42 1339.23 1072.24 C 1339.93 1073.1 1340.62 1073.96 1341.34 1074.81 C 1338.85 1076.69 1333.11 1076.38 1329.92 1076.76 C 1324.12 1077.43 1319.5 1079.23 1314.15 1081.51 C 1318.93 1073.54 1321.62 1073.64 1329.52 1070 C 1332.34 1064.43 1314.46 1042.59 1314.9 1033.31 z"/>
<path transform="translate(0,0)" fill="rgb(254,254,254)" d="M 1053.39 319.339 C 1041.32 310.829 1016.31 285.811 1012.99 271.212 C 1012.92 270.901 1012.91 270.581 1012.86 270.265 C 1033.54 290.906 1042.31 320.508 1077.02 320.615 C 1082.05 320.631 1091.8 318.215 1095.97 319.69 L 1096.21 321.01 C 1088.6 325.389 1074.69 324.287 1065.88 325.323 C 1074.45 331.636 1085.25 330.213 1095.26 329.394 C 1096.6 329.285 1096.19 329.36 1097.73 330 L 1098.05 331.348 C 1095.61 334.03 1093.42 336.591 1089.56 336.994 C 1087.03 337.258 1083.95 336.502 1081.44 336.115 L 1082.83 335.768 L 1080.74 337.483 L 1084.03 340.716 C 1080.75 341.56 1078.31 339.96 1075.39 338.641 C 1073.01 337.56 1070.8 336.681 1068.11 337.302 C 1067.09 337.539 1066.42 338.009 1065.55 338.521 C 1060.22 335.365 1055.49 328.625 1051.59 323.859 C 1052.14 322.306 1052.73 320.846 1053.39 319.339 z"/>
<path transform="translate(0,0)" fill="rgb(80,79,80)" d="M 1053.39 319.339 C 1056.67 321.437 1059.97 323.5 1063.14 325.769 C 1070.53 331.871 1076.36 335.479 1086.35 334.736 C 1089.6 334.495 1092.13 333.564 1095.06 332.239 C 1096.57 331.557 1095.99 331.815 1098.05 331.348 C 1095.61 334.03 1093.42 336.591 1089.56 336.994 C 1087.03 337.258 1083.95 336.502 1081.44 336.115 L 1082.83 335.768 L 1080.74 337.483 L 1084.03 340.716 C 1080.75 341.56 1078.31 339.96 1075.39 338.641 C 1073.01 337.56 1070.8 336.681 1068.11 337.302 C 1067.09 337.539 1066.42 338.009 1065.55 338.521 C 1060.22 335.365 1055.49 328.625 1051.59 323.859 C 1052.14 322.306 1052.73 320.846 1053.39 319.339 z"/>
<path transform="translate(0,0)" fill="rgb(80,79,80)" d="M 1098.37 1396.76 C 1110.68 1397.09 1123.8 1400.74 1136.09 1402.44 C 1146.34 1403.85 1157.03 1403.49 1167.35 1403.75 C 1170.85 1403.84 1174.06 1403.88 1177.48 1404.65 C 1178.36 1407.42 1177.11 1409.96 1176.26 1412.6 C 1172.07 1413.53 1168.06 1413.96 1163.78 1414.15 C 1147.27 1414.87 1125.07 1414.82 1110.28 1406.57 C 1105.93 1404.14 1102.04 1400.1 1098.37 1396.76 z"/>
<path transform="translate(0,0)" fill="rgb(254,254,254)" d="M 993.585 196.835 C 995.199 198.57 1004.96 220.513 1007.46 224.975 C 1005.79 235.421 1006.35 245.869 1005.25 256.339 L 1003.53 256.574 C 999.316 253.293 991.169 249.74 988.424 245.28 C 984.554 238.99 991.599 205.023 993.585 196.835 z"/>
<path transform="translate(0,0)" fill="rgb(254,254,254)" d="M 598.963 661.739 C 621.362 619.398 643.57 577.065 669.772 536.917 C 672.808 532.264 676.269 525.144 680.466 521.721 C 681.76 523.45 681.706 522.709 681.533 524.592 C 680.912 531.37 662.774 556.018 658.21 563.623 C 648.973 579.037 640.058 594.642 631.471 610.427 C 625.985 620.515 605.451 661.604 599.323 667.54 C 598.511 668.326 598.193 668.38 597.276 668.76 C 596.949 666.157 598.02 664.098 598.963 661.739 z"/>
<path transform="translate(0,0)" fill="rgb(254,254,254)" d="M 869.158 332.84 C 870.821 333.08 872.414 333.386 874.014 333.919 C 900.511 342.739 921.993 369.761 933.805 393.895 L 920.601 394.76 C 908.326 369.181 892.228 349.379 869.158 332.84 z"/>
<path transform="translate(0,0)" fill="rgb(254,254,254)" d="M 1159.86 442.556 C 1177.36 449.763 1202.4 476.983 1212.18 493.083 C 1228.75 520.36 1248.9 577.473 1241.06 608.793 L 1239.9 609.373 C 1237.84 605.18 1239.13 596.272 1238.94 591.325 C 1238.56 581.251 1236.98 570.493 1234.99 560.627 C 1225.56 514.126 1204.21 477.842 1164.02 451.339 C 1163.02 448.077 1161.59 445.483 1159.86 442.556 z"/>
<path transform="translate(0,0)" fill="rgb(254,254,254)" d="M 687.442 530.496 C 690.834 533.194 694.411 536.458 698.184 538.575 C 701.559 540.469 705.859 541.002 708.735 543.563 C 702.054 549.634 696.817 555.964 691.534 563.271 C 688.319 567.228 685.445 571.467 682.491 575.62 C 680.606 566.5 679.184 557.343 677.085 548.252 C 680.336 542.247 683.992 536.395 687.442 530.496 z"/>
<path transform="translate(0,0)" fill="rgb(254,254,254)" d="M 979.218 910.459 C 986.989 914.518 999.461 919.047 1002.41 927.891 L 1000.31 927.733 C 998.411 925.804 997.712 924.33 994.943 923.936 C 993.798 927.289 993.816 931.004 993.038 934.479 C 991.631 940.764 989.681 946.996 987.935 953.199 C 983.457 951.977 979.293 951.42 976.694 947.201 C 971.828 939.302 977.533 919.377 979.218 910.459 z"/>
<path transform="translate(0,0)" fill="rgb(49,49,50)" d="M 982.102 915.347 C 984.938 916.003 987.639 916.742 989.229 919.416 C 993.298 926.259 988.143 941.774 986.247 949.188 C 985.472 949.175 984.714 949.202 983.953 948.979 C 981.597 948.289 979.698 947.189 978.607 944.893 C 975.33 937.999 980.468 922.65 982.102 915.347 z"/>
<path transform="translate(0,0)" fill="rgb(254,254,254)" d="M 367.396 1768.72 L 368.577 1770.11 C 369.17 1777.82 362.022 1786.5 358.919 1793.5 C 360.446 1796.52 361.931 1799.56 363.373 1802.63 C 367.297 1810.92 381.756 1840.6 379.035 1848.25 L 375.58 1849.84 C 370.64 1844.13 353.201 1797.92 353.153 1789.12 C 353.117 1782.42 363.019 1773.45 367.396 1768.72 z"/>
<path transform="translate(0,0)" fill="rgb(254,254,254)" d="M 836.757 770.784 C 849.499 778.997 851.321 809.132 861.452 821.875 C 877.185 841.665 918.339 862.256 940.325 878.178 C 937.074 877.45 934.311 875.783 931.461 874.123 C 915.726 864.955 866.111 838.098 857.023 825.08 C 848.795 813.296 840.567 785.165 836.757 770.784 z"/>
<path transform="translate(0,0)" fill="rgb(254,254,254)" d="M 1405.02 1893.21 C 1416.95 1892.84 1460.01 1919.21 1472.12 1927.36 C 1480.4 1932.94 1481.99 1935.85 1483.86 1945.5 L 1464.14 1942.41 C 1458.97 1934.47 1455.86 1923.22 1449.17 1916.57 C 1441.32 1908.78 1407.5 1897.33 1405.02 1893.21 z"/>
<path transform="translate(0,0)" fill="rgb(254,254,254)" d="M 1105.04 80.538 C 1107.87 80.2684 1110.72 80.1049 1113.56 80.048 C 1141.53 79.3527 1181.69 87.0357 1202.78 106.955 C 1202.43 106.978 1202.09 107.01 1201.74 107.023 C 1201.19 107.045 1200.63 107.043 1200.08 107.062 C 1187.99 107.496 1162.66 93.2389 1148.97 89.3572 C 1134.83 85.3491 1118.62 85.3977 1105.04 80.538 z"/>
<path transform="translate(0,0)" fill="rgb(254,254,254)" d="M 1212.75 681.784 C 1212.95 684.204 1212.95 686.431 1212.64 688.839 C 1211.53 697.261 1205.92 724.356 1199.41 729.374 C 1196.44 728.003 1194.78 725.532 1192.65 723.108 L 1186.29 715.57 C 1196.18 704.924 1204.68 693.827 1212.75 681.784 z"/>
<path transform="translate(0,0)" fill="rgb(214,71,73)" d="M 1232.85 571.036 C 1234.87 577.379 1235.38 583.661 1235.98 590.253 C 1236.46 598.076 1237.01 607.247 1235.94 614.979 C 1234.38 617.324 1233.71 618.32 1231.03 619.496 L 1229.41 618.821 C 1225.8 608.477 1226.77 596.059 1224.32 585.148 L 1222.32 574.233 C 1225.83 572.67 1229.1 571.82 1232.85 571.036 z"/>
<path transform="translate(0,0)" fill="rgb(166,55,59)" d="M 1232.85 571.036 C 1234.87 577.379 1235.38 583.661 1235.98 590.253 L 1234.15 590.371 C 1233.28 588.201 1232.35 586.026 1230.98 584.111 C 1229.51 582.044 1228.34 581.388 1225.91 581.02 C 1224.46 582.567 1224.68 583.123 1224.32 585.148 L 1222.32 574.233 C 1225.83 572.67 1229.1 571.82 1232.85 571.036 z"/>
<path transform="translate(0,0)" fill="rgb(254,254,254)" d="M 947.695 464.682 L 951.251 466.628 C 951.581 467.8 951.672 467.835 951.616 469.253 C 951.192 480.044 924.979 509.046 916.584 518.309 L 914.686 518.777 L 913.135 516.072 C 913.113 515.05 912.827 514.001 913.067 513.007 C 913.979 509.233 921.302 501.958 923.805 498.77 C 932.442 487.767 940.362 476.598 947.695 464.682 z"/>
<path transform="translate(0,0)" fill="rgb(254,254,254)" d="M 866.915 1060.24 C 869.976 1045.52 873.053 1032.42 884.203 1021.56 C 880.153 1032.81 874.134 1044.95 872.961 1056.89 C 871.961 1062.11 871.881 1067.11 871.847 1072.4 C 867.573 1074.72 860.8 1077.34 857.623 1080.88 C 857.316 1080.75 856.995 1080.65 856.703 1080.49 C 854.417 1079.25 853.177 1074.18 852.275 1071.74 C 857.371 1068.11 862.396 1064.59 866.915 1060.24 z"/>
<path transform="translate(0,0)" fill="rgb(214,71,73)" d="M 1204.53 514.781 C 1202.12 510.466 1196.39 499.857 1197.51 494.978 C 1197.57 494.71 1197.71 494.464 1197.81 494.206 C 1203.51 496.275 1209.29 506.717 1211.84 512.119 C 1210.6 514.119 1209.11 515.078 1207.25 516.443 C 1208.8 517.012 1210.43 517.478 1211.96 518.055 C 1216.24 519.662 1219.37 523.867 1220.87 528.025 C 1222 531.152 1222.96 534.352 1224.06 537.495 C 1220.21 537.983 1216.95 538.547 1213.32 539.955 C 1209.92 531.772 1206.01 523.566 1204.53 514.781 z"/>
<path transform="translate(0,0)" fill="rgb(250,87,91)" d="M 1213.32 539.955 C 1216.95 538.547 1220.21 537.983 1224.06 537.495 C 1228.53 548.471 1230.69 559.445 1232.85 571.036 C 1229.1 571.82 1225.83 572.67 1222.32 574.233 C 1220 562.612 1217.35 551.116 1213.32 539.955 z"/>
<path transform="translate(0,0)" fill="rgb(254,254,254)" d="M 1204.16 1862.81 C 1209.35 1867.56 1222.33 1902.01 1228.42 1911.84 C 1221.71 1909.84 1215.71 1906.9 1209.56 1903.63 C 1206.09 1890.97 1205.76 1875.92 1204.16 1862.81 z"/>
<path transform="translate(0,0)" fill="rgb(254,254,254)" d="M 1315.26 1018.44 C 1324.89 1021.36 1346.25 1061.98 1352.4 1072.47 C 1349.65 1072.92 1347.09 1073.24 1344.31 1073.34 C 1338.75 1063.46 1316.54 1025.89 1315.26 1018.44 z"/>
<path transform="translate(0,0)" fill="rgb(80,79,80)" d="M 1316.34 1002.71 C 1317.45 1002.84 1318.24 1002.89 1319.35 1003.22 C 1330.92 1006.64 1343.15 1031.04 1349.51 1041.27 C 1352.98 1046.86 1367.29 1071.59 1366.02 1077.02 L 1364.96 1076.89 C 1363.96 1075.18 1363.02 1073.46 1362.09 1071.72 C 1357.02 1059.38 1343.51 1032.05 1333.7 1024.04 C 1328.26 1019.6 1321.52 1016.67 1316.13 1012.17 C 1314.65 1010.93 1313.52 1010.52 1313.36 1008.56 C 1315.41 1008.67 1314.69 1008.53 1316.45 1008.98 C 1318.66 1009.55 1320.47 1010.35 1322.77 1009.77 C 1321.69 1006.97 1318.52 1004.69 1316.34 1002.71 z"/>
<path transform="translate(0,0)" fill="rgb(254,254,254)" d="M 584.187 1099.73 C 588.289 1092.97 592.059 1083.78 597.164 1077.93 C 598.57 1076.32 597.756 1076.81 600.034 1076.62 C 603.645 1079.89 604.44 1086.25 607.81 1090.33 C 608.017 1090.58 608.234 1090.82 608.446 1091.06 C 610.36 1095.67 611.875 1101.82 614.914 1105.71 C 615.557 1107.61 615.59 1107.82 615.207 1109.92 C 609.113 1106.47 606.26 1094.4 600.368 1089.6 C 599.186 1088.64 598.607 1088.33 597.043 1088.75 C 594.293 1089.49 592.891 1091.08 591.298 1093.28 C 593.642 1096.61 596.338 1099.66 598.963 1102.77 C 595.639 1105.24 592.248 1107.29 588.633 1109.3 C 587.228 1106.08 585.68 1102.92 584.187 1099.73 z"/>
<path transform="translate(0,0)" fill="rgb(80,79,80)" d="M 1342.41 1127.68 L 1345.32 1125.31 L 1347.39 1125.52 C 1347.73 1127.92 1347.87 1126.8 1347.11 1128.9 L 1347.94 1130.1 L 1346.72 1130.3 C 1348.87 1130.09 1348.74 1130.29 1350.67 1128.91 C 1352 1127.95 1353.29 1127.42 1354.67 1126.6 C 1355.33 1126.21 1356.86 1125.09 1357.53 1124.6 L 1359.47 1125.25 L 1359.83 1126.87 C 1354.47 1132.82 1342.78 1140.3 1335.47 1143.67 C 1334.68 1141.77 1334.01 1139.84 1332.85 1138.13 C 1330.38 1139.56 1329.09 1140.44 1326.14 1140.39 C 1323.47 1139.12 1322.98 1139.24 1321.75 1136.6 L 1322.73 1134.17 C 1328.81 1128.82 1334.64 1128.69 1342.41 1127.68 z"/>
<path transform="translate(0,0)" fill="rgb(254,254,254)" d="M 1342.41 1127.68 C 1339.46 1130.87 1335.12 1134.54 1332.85 1138.13 C 1330.38 1139.56 1329.09 1140.44 1326.14 1140.39 C 1323.47 1139.12 1322.98 1139.24 1321.75 1136.6 L 1322.73 1134.17 C 1328.81 1128.82 1334.64 1128.69 1342.41 1127.68 z"/>
<path transform="translate(0,0)" fill="rgb(254,254,254)" d="M 1186.65 776.877 C 1186.71 776.93 1186.77 776.977 1186.83 777.037 C 1189.2 779.852 1188.28 788.994 1188.35 792.787 C 1175.32 792.902 1163.87 795.344 1151.99 800.687 L 1151.74 800.394 C 1151.86 797.213 1153.69 794.925 1155.25 792.213 C 1166.24 787.862 1176.61 783.147 1186.65 776.877 z"/>
<path transform="translate(0,0)" fill="rgb(254,254,254)" d="M 1043.13 316.513 L 1051.59 323.859 C 1055.49 328.625 1060.22 335.365 1065.55 338.521 C 1076.29 346.114 1088.68 350.014 1101.33 353.046 C 1094.63 354.214 1088.38 355.765 1081.9 357.861 C 1080.23 357.622 1079.26 357.086 1077.81 356.252 L 1076.76 355.633 C 1065.78 349.299 1051.04 327.305 1043.13 316.513 z"/>
<path transform="translate(0,0)" fill="rgb(254,254,254)" d="M 1307.71 1007.8 C 1310.08 1010.52 1312.9 1012.78 1315.38 1015.43 L 1314.5 1015.82 L 1311.18 1013.82 C 1308.63 1015.08 1306.12 1016.37 1303.77 1017.98 C 1292.49 1025.67 1288.77 1034.89 1286.27 1047.78 C 1286.13 1047.99 1286.03 1048.23 1285.85 1048.42 C 1284.25 1050.12 1284.12 1050.29 1281.75 1050.26 C 1280.06 1047.85 1279.9 1045.77 1280.38 1042.87 C 1283.02 1026.95 1295.1 1016.3 1307.71 1007.8 z"/>
<path transform="translate(0,0)" fill="rgb(254,254,254)" d="M 1298.77 962.543 C 1300.63 962.66 1302.15 962.7 1303.93 963.341 C 1312.87 966.549 1328.98 983.808 1332.41 992.591 C 1324.39 986.817 1316.45 983.643 1307.2 980.333 C 1303.96 975.259 1299.01 968.641 1298.77 962.543 z"/>
<path transform="translate(0,0)" fill="rgb(254,254,254)" d="M 1101.33 353.046 C 1103.32 353.56 1105 353.899 1106.78 354.976 C 1106.49 355.485 1106.2 355.998 1105.89 356.503 C 1103.89 359.847 1100.46 361.733 1099.32 365.562 C 1102.7 369.238 1116.14 376.214 1121.5 380.206 C 1111.38 376.592 1092.07 369.02 1085.07 361.115 L 1084.45 358.746 L 1081.9 357.861 C 1088.38 355.765 1094.63 354.214 1101.33 353.046 z"/>
<path transform="translate(0,0)" fill="rgb(80,79,80)" d="M 1101.33 353.046 C 1103.32 353.56 1105 353.899 1106.78 354.976 C 1098.94 360.375 1093.68 358.886 1085.07 361.115 L 1084.45 358.746 L 1081.9 357.861 C 1088.38 355.765 1094.63 354.214 1101.33 353.046 z"/>
<path transform="translate(0,0)" fill="rgb(254,254,254)" d="M 942.648 269.333 C 950.809 268.849 957.8 269.361 965.737 271.392 C 973.841 273.466 988.806 278.217 993.182 285.571 C 993.182 287.816 993.326 289.128 991.971 290.993 C 982.732 283.11 968.058 275.928 956.127 273.55 C 951.718 272.671 945.035 273.227 941.255 270.946 L 942.648 269.333 z"/>
<path transform="translate(0,0)" fill="rgb(254,254,254)" d="M 1266.66 402.311 C 1269.54 402.045 1270.2 401.734 1272.69 403.112 C 1270.19 405.691 1221.93 418.157 1214.26 420.375 C 1211.8 420.884 1210.54 420.009 1208.37 418.98 L 1208.74 417.71 C 1226.86 410.517 1247.47 405.659 1266.66 402.311 z"/>
<path transform="translate(0,0)" fill="rgb(80,79,80)" d="M 610.958 1082.48 L 609.678 1079.26 L 610.257 1077.98 C 614.723 1080.51 617.346 1083.29 619.28 1088.06 L 618.819 1089.79 L 616.176 1091.21 L 616.095 1091.8 L 616.54 1092.8 C 617.699 1095.34 618.818 1097.33 620.553 1099.52 C 622.144 1101.53 623.341 1103.69 623.183 1106.36 C 623.093 1107.9 622.999 1107.99 622.621 1109.31 C 620.722 1110.21 620.569 1110.22 618.496 1109.88 L 615.66 1105.01 L 614.914 1105.71 C 611.875 1101.82 610.36 1095.67 608.446 1091.06 C 610.735 1088.18 610.509 1086.09 610.958 1082.48 z"/>
<path transform="translate(0,0)" fill="rgb(254,254,254)" d="M 616.095 1091.8 L 616.54 1092.8 C 617.699 1095.34 618.818 1097.33 620.553 1099.52 C 622.144 1101.53 623.341 1103.69 623.183 1106.36 C 623.093 1107.9 622.999 1107.99 622.621 1109.31 C 620.722 1110.21 620.569 1110.22 618.496 1109.88 L 615.66 1105.01 C 613.985 1101.2 615.414 1095.8 616.095 1091.8 z"/>
<path transform="translate(0,0)" fill="rgb(49,49,50)" d="M 610.958 1082.48 L 609.678 1079.26 L 610.257 1077.98 C 614.723 1080.51 617.346 1083.29 619.28 1088.06 L 618.819 1089.79 L 616.176 1091.21 C 613.489 1088.48 612.376 1086.01 610.958 1082.48 z"/>
<path transform="translate(0,0)" fill="rgb(254,254,254)" d="M 590.775 1118.63 C 592.435 1119.38 591.95 1119.41 593.433 1119.38 C 595.945 1119.34 597.809 1119.3 600.329 1119.85 L 600.334 1121.08 C 597.074 1124.22 591.368 1129.56 586.878 1130.38 C 584.975 1127.52 583.925 1125.16 580.415 1124.36 C 580.093 1125.92 579.806 1127.34 579.179 1128.82 C 579.043 1129.14 578.884 1129.45 578.737 1129.76 C 577.305 1130.35 575.864 1130.95 574.397 1131.45 C 571.832 1132.32 565.825 1134.04 563.421 1132.92 C 566.938 1128.63 576.132 1122.84 581.667 1122.08 C 583.109 1121.89 584.594 1121.74 586.043 1121.58 C 588.855 1121.27 588.839 1120.56 590.775 1118.63 z"/>
<path transform="translate(0,0)" fill="rgb(254,254,254)" d="M 1304.54 1039.72 C 1305.54 1045.23 1304.24 1052.21 1303.85 1057.81 C 1301.16 1062.26 1297.88 1066.46 1294.85 1070.7 C 1291.11 1072.59 1287.64 1073.57 1283.56 1074.44 C 1283.53 1074.23 1283.45 1074.01 1283.47 1073.8 C 1283.72 1070.9 1286 1070.16 1288.23 1068.53 C 1297.5 1061.77 1298.75 1049.29 1304.54 1039.72 z"/>
<path transform="translate(0,0)" fill="rgb(254,254,254)" d="M 615.143 1048.1 L 614.205 1049.21 C 612.483 1049.8 610.923 1050.52 609.117 1049.87 C 605.004 1048.39 600.887 1044.84 598.957 1040.93 C 597.832 1038.65 597.938 1039.68 598.633 1037.39 L 602.15 1038.63 C 601.419 1036.94 600.613 1034.19 599.482 1032.8 C 599.081 1032.3 598.525 1031.96 598.046 1031.54 L 598.683 1030.8 C 603.771 1034.33 606.054 1043.09 612.065 1045.08 C 612.636 1045.27 613.218 1045.43 613.795 1045.6 C 617.038 1045.08 620.154 1044.18 623.304 1045.46 C 624.572 1047.17 626.199 1050.59 625.889 1052.85 C 625.803 1053.47 625.543 1054.06 625.37 1054.66 L 624.193 1054.98 C 621.62 1052.34 618.95 1048.64 615.143 1048.1 z"/>
<path transform="translate(0,0)" fill="rgb(254,254,254)" d="M 1012.55 954.785 C 1022.05 961.277 1045.83 985.82 1053.18 995.643 C 1042.53 988.094 1032.1 978.989 1022.41 970.222 C 1017.22 965.53 1012.9 962.195 1012.55 954.785 z"/>
<path transform="translate(0,0)" fill="rgb(254,254,254)" d="M 579.113 1104.98 L 581.397 1105.85 L 582.378 1108.09 C 581.461 1109.05 581.367 1109.24 580.071 1110.08 C 573.014 1114.6 559.064 1117.61 550.988 1116.29 C 549.091 1115.82 547.227 1115.36 545.301 1115.02 C 544.883 1114.94 544.462 1114.88 544.043 1114.81 L 543.82 1114.24 C 548.002 1112.93 552.88 1112.84 557.221 1111.97 C 564.729 1110.46 571.945 1107.62 579.113 1104.98 z"/>
<path transform="translate(0,0)" fill="rgb(254,254,254)" d="M 1183.86 754.901 C 1185.49 756.729 1185.35 759.777 1185.33 762.063 C 1181.42 771.027 1170.42 776.409 1162.28 780.965 L 1161.86 780.597 C 1162.28 774.8 1179.62 760.988 1183.86 754.901 z"/>
<path transform="translate(0,0)" fill="rgb(254,254,254)" d="M 1296.75 930.725 C 1304.15 936.922 1313.35 959.047 1317.7 968.338 C 1317.47 968.209 1317.24 968.092 1317.02 967.95 C 1304.45 959.787 1300.35 944.314 1296.75 930.725 z"/>
<path transform="translate(0,0)" fill="rgb(254,254,254)" d="M 1062.73 354.691 C 1064.53 355.549 1064.1 355.186 1065.37 356.262 C 1072.92 362.681 1083.68 369.304 1090.13 376.101 C 1083.85 376.379 1076.8 371.817 1071.25 369.134 C 1068.02 364.497 1064.69 360.041 1062.73 354.691 z"/>
<path transform="translate(0,0)" fill="rgb(98,87,89)" d="M 1000.31 927.733 L 1002.41 927.891 C 1001.8 932.923 1001.31 938.43 1001.55 943.486 C 1001.77 948.406 1005.41 956.466 1002.92 960.699 C 1000.32 960.557 1000.78 960.465 999.004 958.869 C 995.518 949.988 998.887 936.955 1000.31 927.733 z"/>
<path transform="translate(0,0)" fill="rgb(98,87,89)" d="M 1172.54 741.481 C 1172.73 741.625 1172.94 741.745 1173.1 741.913 C 1175.34 744.204 1177.37 747.237 1177.31 750.552 C 1177.22 755.512 1174.11 758.863 1171.05 762.42 L 1169.44 762.69 L 1168.33 761.605 C 1168.02 754.431 1170.18 748.128 1172.54 741.481 z"/>
<path transform="translate(0,0)" fill="rgb(254,254,254)" d="M 525.959 1129.17 C 527.795 1129.29 527.377 1128.99 528.61 1129.8 C 529.273 1130.23 529.898 1130.72 530.576 1131.13 C 537.36 1135.24 542.087 1130.13 548.568 1129.04 C 552.955 1128.29 556.735 1131.1 559.901 1133.68 C 554.109 1135.79 540.202 1135.59 533.957 1134.59 C 530.503 1134.04 527.884 1132.02 525.959 1129.17 z"/>
<path transform="translate(0,0)" fill="rgb(254,254,254)" d="M 1365.44 1828.14 C 1367.33 1826.94 1368.66 1826.19 1370.88 1825.79 C 1373.08 1827.2 1373.56 1828.35 1374.08 1830.93 C 1374.81 1834.48 1374.96 1838.35 1375.3 1841.96 L 1372.14 1843.44 L 1370.5 1842.44 C 1369.68 1838.22 1369.85 1833.34 1367.68 1829.62 L 1365.44 1828.14 z"/>
<path transform="translate(0,0)" fill="rgb(254,254,254)" d="M 622.077 1076.82 C 626.548 1078.69 629.863 1087.73 633.806 1091.36 C 635.243 1092.68 635.027 1092.26 635.975 1093.87 C 636.876 1095.39 635.87 1097.1 635.457 1098.73 C 634.687 1098.68 633.691 1098.64 632.959 1098.44 C 625.95 1096.55 628.047 1087.03 624.659 1081.85 C 623.496 1080.08 622.861 1078.76 622.077 1076.82 z"/>
<path transform="translate(0,0)" fill="rgb(254,254,254)" d="M 1300.34 1122.49 C 1304.63 1123.79 1308.84 1126.44 1312.37 1129.17 C 1312.6 1129.34 1314.34 1130.76 1314.71 1130.92 C 1320.79 1133.68 1311.71 1128.79 1318.21 1132.41 C 1316.8 1133.13 1315.36 1133.78 1313.93 1134.45 C 1311.75 1134.33 1310.23 1134.26 1308.22 1133.3 C 1304.18 1131.39 1301.94 1126.34 1300.34 1122.49 z"/>
<path transform="translate(0,0)" fill="rgb(254,254,254)" d="M 913.151 469.969 C 917.802 469.946 922.843 469.587 927.437 470.276 C 929.563 470.595 930.171 470.533 931.503 472.289 L 929.736 474.644 C 924.472 474.391 917.181 476.268 912.612 473.434 L 913.151 469.969 z"/>
<path transform="translate(0,0)" fill="rgb(254,254,254)" d="M 1279.4 1058.61 C 1280.46 1060.72 1280.33 1060.44 1282.09 1061.59 C 1283.42 1061.05 1284.65 1060.49 1285.92 1059.82 L 1287.19 1059.14 C 1287.24 1061.65 1286.13 1063.36 1284.98 1065.51 C 1283.21 1066.22 1281.4 1067.04 1279.48 1067.16 C 1277.13 1067.32 1277.12 1067.41 1275.28 1065.82 C 1275.64 1062.12 1277 1061.35 1279.4 1058.61 z"/>
<path transform="translate(0,0)" fill="rgb(80,79,80)" d="M 597.276 668.76 C 593.15 665.856 589.714 664.857 586.368 660.671 L 589.144 661.876 C 592.852 661.135 595.287 660.708 598.963 661.739 C 598.02 664.098 596.949 666.157 597.276 668.76 z"/>
<path transform="translate(0,0)" fill="rgb(128,89,90)" d="M 962.555 179.407 C 966.252 178.853 970.304 179.002 974.055 178.843 C 967.885 196.901 963.787 215.051 960.523 233.806 C 831.133 246.55 708.838 295.423 602.505 369.464 C 443.18 482.493 334.165 653.154 298.591 845.234 C 263.031 1037.7 305.084 1236.43 415.565 1397.99 C 408.055 1413.92 394.518 1431.74 384.824 1446.88 L 380.263 1441.36 C 357.503 1411.75 338.625 1378.82 321.557 1345.69 C 272.921 1251.27 243.809 1158.11 234.537 1052 C 216.116 840.941 281.52 631.118 416.602 467.911 C 530.497 332.567 685.231 237.829 857.562 197.928 C 892.129 189.732 927.117 182.458 962.555 179.407 z"/>
<path transform="translate(0,0)" fill="rgb(128,89,90)" d="M 1617.36 381.311 C 1631.07 390.095 1647.43 409.415 1658.82 421.49 C 1727.49 494.284 1784.37 575.622 1823.3 668.178 C 1905.98 863.825 1906.3 1084.54 1824.17 1280.42 C 1806.27 1324.17 1783.81 1364.81 1758.13 1404.44 C 1667.82 1544.85 1536.7 1654.26 1382.4 1717.97 L 1353.3 1730.05 C 1348.71 1710.89 1343.75 1691.75 1340.08 1672.39 C 1406.58 1647.11 1459.32 1620.49 1517.53 1579.51 C 1669.93 1472.24 1785.08 1296.82 1817 1112.64 C 1821.4 1087.26 1825.66 1061.92 1827.78 1036.23 C 1841.5 869.512 1796.89 708.88 1705.05 569.678 C 1687.97 543.829 1669.51 518.915 1649.76 495.045 C 1640.5 483.76 1629.27 473.307 1621 461.36 C 1620.82 461.098 1620.64 460.831 1620.47 460.566 C 1619.15 434.25 1617.39 407.649 1617.36 381.311 z"/>
<path transform="translate(0,0)" fill="rgb(128,89,90)" d="M 1314.22 167.509 L 1565.82 167.123 L 1590.57 615.462 C 1595.56 732.68 1601.62 849.85 1608.76 966.957 C 1580.26 941.825 1552.72 915.46 1525.28 889.174 L 1513.03 878.024 C 1510.4 799.504 1510.16 720.729 1508.59 642.17 C 1506.37 523.143 1503.49 404.129 1499.94 285.135 C 1458.18 284.251 1416.18 284.871 1374.4 285.208 C 1347.02 325.952 1322.17 368.84 1293.36 408.537 C 1291.01 363.225 1292.38 364.166 1307.55 321.278 C 1311 311.538 1313.35 301.161 1318.73 292.262 C 1319.33 291.264 1319.95 290.275 1320.5 289.244 C 1329.38 272.416 1322.89 220.027 1318.28 201.262 C 1315.95 191.759 1311.84 183.154 1309.33 173.879 C 1308.67 171.412 1308.51 170.029 1309.92 167.847 L 1314.22 167.509 z"/>
<path transform="translate(0,0)" fill="rgb(128,89,90)" d="M 816.325 807.752 C 832.576 835.294 806.932 876.514 798.293 903.056 C 791.294 924.562 785.233 946.773 780.857 968.963 C 779.629 975.189 776.334 985.742 778.873 991.707 C 778.936 991.854 779.855 993.828 779.917 994.045 C 779.944 994.138 780.495 996.704 780.4 997.147 C 777.43 1010.94 730.921 1080.4 721.605 1094.93 C 713.865 1107.01 706.607 1119.4 699.074 1131.6 L 622.202 1257.25 C 581.244 1323.08 539.673 1388.42 500.101 1455.12 L 402.727 1615.95 C 390.473 1636.58 376.605 1657.02 365.834 1678.42 C 381.739 1679.7 398.535 1678.28 414.493 1677.86 C 399.543 1696.04 381.69 1712.98 365.191 1729.78 C 343.632 1730.6 322.045 1730.75 300.501 1731.88 C 285.533 1732.26 270.545 1733.28 255.598 1734.13 C 266.757 1710.43 283.216 1688.37 296.785 1665.94 L 405.493 1488.65 L 541.262 1261.9 C 560.057 1231.08 577.153 1198.33 598.35 1169.13 L 608.874 1171.46 L 609.957 1170.84 C 616.108 1167.27 621.982 1162.78 626.3 1157.07 C 632.299 1149.14 635.265 1138.52 640.173 1129.83 C 645.208 1120.92 651.986 1112.89 656.731 1103.84 C 658.433 1100.6 659.378 1097 660.33 1093.48 C 657.373 1085.34 653.692 1077.38 650.531 1069.3 L 816.325 807.752 z"/>
<path transform="translate(0,0)" fill="rgb(128,89,90)" d="M 1301.52 800.608 C 1310.61 806.804 1318.96 816.685 1326.98 824.293 C 1343.9 840.344 1361.07 856.35 1378.32 872.057 L 1543.63 1023.79 C 1561.78 1040.69 1580.99 1056.55 1598.63 1073.99 C 1555.21 1117.39 1510.6 1159.55 1466.49 1202.25 C 1450.91 1217.85 1435.45 1233.67 1419.34 1248.73 C 1417.43 1221.45 1411.89 1194.34 1410.01 1166.91 C 1435.9 1135.07 1468.49 1108.95 1496.18 1078.7 C 1485.48 1067.93 1473.88 1057.83 1462.79 1047.44 C 1444.93 1030.51 1426.93 1013.71 1408.8 997.062 C 1395.45 984.951 1350.53 947.061 1343.27 934.792 C 1336.44 923.241 1333.44 906.601 1329.47 893.61 L 1301.52 800.608 z"/>
<path transform="translate(0,0)" fill="rgb(80,79,80)" d="M 837.677 1158.82 C 858.725 1178.26 879.078 1196.03 904.212 1210.17 C 914.881 1216.17 928.26 1219.88 937.926 1227.12 C 946.791 1233.75 995.964 1289.52 998.266 1297.59 C 976.838 1335.74 952.217 1371.15 927.101 1406.91 C 908.445 1412.67 890.266 1421.08 872.195 1428.5 C 832.75 1444.69 793.269 1461.37 752.117 1472.81 C 760.364 1462.43 770.266 1453 779.462 1443.44 C 803.992 1417.93 829.877 1393.65 853.765 1367.56 C 851.275 1350.54 845.552 1333.56 842.031 1316.66 C 836.782 1291.47 832.794 1266.03 827.699 1240.81 C 824.73 1226.12 820.784 1211.64 817.642 1196.98 C 821.848 1182.86 829.404 1170.89 837.677 1158.82 z"/>
<path transform="translate(0,0)" fill="rgb(128,89,90)" d="M 1613.41 1173.76 C 1616.97 1178.8 1625.15 1339.36 1627.04 1360.98 C 1562.07 1360.67 1497.1 1360.76 1432.14 1361.24 L 1416.32 1361.24 C 1437.49 1337.96 1462.3 1317.14 1485.24 1295.51 L 1613.41 1173.76 z"/>
<path transform="translate(0,0)" fill="rgb(80,79,80)" d="M 809.689 1206.67 C 811.661 1208.61 811.965 1211.28 812.54 1213.89 C 820.022 1247.79 825.314 1282.32 832.593 1316.34 C 835.962 1332.08 839.054 1348.31 844.902 1363.35 C 830.456 1378.44 815.705 1393.23 800.658 1407.72 C 799.688 1408.33 798.682 1408.67 797.617 1409.08 C 795.809 1407.07 768.627 1310.79 766.788 1301.35 C 770.426 1287.74 778.087 1274.25 784.05 1261.51 C 792.432 1243.16 800.979 1224.87 809.689 1206.67 z"/>
<path transform="translate(0,0)" fill="rgb(80,79,80)" d="M 760.294 1308.61 C 765.388 1320.73 767.891 1335.2 771.295 1347.95 L 790.886 1419.15 C 780.745 1428.9 770.861 1438.92 761.244 1449.2 C 758.443 1446.33 733.895 1382.92 730.411 1374.44 C 739.378 1352.04 749.962 1330.39 760.294 1308.61 z"/>
<path transform="translate(0,0)" fill="rgb(80,79,80)" d="M 714.285 1418.95 L 715.822 1417.03 L 716.198 1412.52 C 716.926 1402.88 723.192 1389.38 722.956 1382.44 C 734.361 1406.92 745.512 1432.67 754.081 1458.29 L 741.24 1472.59 C 735.631 1460.98 715.511 1428.88 714.285 1418.95 z"/>
</svg>